<?xml version="1.0" standalone="no"?>
<!DOCTYPE svg PUBLIC "-//W3C//DTD SVG 1.1//EN" "http://www.w3.org/Graphics/SVG/1.1/DTD/svg11.dtd" >
<svg>
<metadata>
Created by FontForge 20120731 at Sun Jun 30 05:01:35 2019
 By www
Copyright (c) 1989 Adobe Systems Incorporated.  All Rights Reserved.Cochin is a trademark of Linotype AG and/or its subsidiaries.
</metadata>
<defs>
<font id="Cochin" horiz-adv-x="500" >
  <font-face 
    font-family="Cochin"
    font-weight="500"
    font-stretch="normal"
    units-per-em="1000"
    panose-1="0 0 0 0 0 0 0 0 0 0"
    ascent="800"
    descent="-200"
    x-height="372"
    cap-height="654"
    bbox="-167 -250 1019 897"
    underline-thickness="50"
    underline-position="-75"
    unicode-range="U+0020-FB02"
  />
<missing-glyph horiz-adv-x="250" 
 />
    <glyph glyph-name=".notdef" horiz-adv-x="250" 
 />
    <glyph glyph-name="space" unicode=" " horiz-adv-x="250" 
 />
    <glyph glyph-name="exclam" unicode="!" horiz-adv-x="389" 
d="M202 154h-13c-1 9 -4 21 -7 36c-13 66 -22 133 -22 200c0 31 6 63 6 94c0 82 -12 121 -48 148v8l115 20c3 -24 9 -48 9 -72c0 -126 -38 -242 -38 -311c0 -41 -2 -82 -2 -123zM196 106c30 0 56 -24 56 -56s-26 -56 -56 -56s-56 24 -56 56s26 56 56 56z" />
    <glyph glyph-name="quotedbl" unicode="&#x22;" horiz-adv-x="333" 
d="M266 589l-16 -204c-1 -8 0 -31 -15 -31s-14 23 -15 31l-16 204c-1 7 -1 16 -1 25c0 44 12 56 32 56s32 -12 32 -56c0 -9 0 -18 -1 -25zM129 589l-16 -204c-1 -8 0 -31 -15 -31s-14 23 -15 31l-16 204c-1 7 -1 16 -1 25c0 44 12 56 32 56s32 -12 32 -56c0 -9 0 -18 -1 -25
z" />
    <glyph glyph-name="numbersign" unicode="#" 
d="M204 440h131l30 210h50l-29 -210h94l3 -44h-103l-20 -142h94l3 -44h-103l-30 -210h-50l30 210h-131l-30 -210h-50l29 210h-102l-3 44h111l20 142h-102l-3 44h111l30 210h50zM330 396h-131l-21 -142h131z" />
    <glyph glyph-name="dollar" unicode="$" 
d="M218 650v92h34v-92c31 0 96 -26 119 -26c9 0 19 1 26 6l19 -143l-11 -3c-23 64 -80 126 -153 136v-242c116 -56 180 -110 180 -184c0 -111 -71 -176 -180 -194v-92h-34v92c-42 0 -82 16 -124 16c-12 0 -23 -4 -33 -10l-38 184l14 4c28 -80 93 -164 181 -164v278
c-80 46 -174 82 -174 192c0 95 89 150 174 150zM218 394v226c-56 0 -102 -39 -102 -99c0 -68 51 -98 102 -127zM252 295v-265c66 5 108 59 108 124c0 70 -51 112 -108 141z" />
    <glyph glyph-name="percent" unicode="%" horiz-adv-x="833" 
d="M477 193c0 139 83 199 145 199s145 -60 145 -199s-83 -199 -145 -199s-145 60 -145 199zM543 195c0 -133 37 -179 80 -179s78 46 78 179s-35 175 -78 175s-80 -42 -80 -175zM566 656h39l-369 -662h-38zM35 457c0 139 83 199 145 199s145 -60 145 -199s-83 -199 -145 -199
s-145 60 -145 199zM101 459c0 -133 37 -179 80 -179s78 46 78 179s-35 175 -78 175s-80 -42 -80 -175z" />
    <glyph glyph-name="ampersand" unicode="&#x26;" horiz-adv-x="741" 
d="M507 438v10c39 -2 79 -4 118 -4c35 0 69 2 104 4v-12c-72 0 -111 -60 -148 -135c-26 -53 -51 -114 -86 -166c41 -80 107 -114 193 -127v-12c-30 2 -84 4 -113 4c-37 0 -73 -2 -110 -4l-32 68c-53 -48 -116 -84 -189 -84c-105 0 -183 78 -183 183c0 111 102 181 199 207
c-51 36 -118 71 -118 143c0 79 79 124 150 124c89 0 167 -33 167 -134c0 -78 -57 -103 -120 -131c63 -59 102 -138 142 -213c28 42 82 167 82 223c0 33 -24 47 -56 56zM149 183c0 -72 56 -147 148 -147c42 0 95 21 125 51c-38 92 -70 190 -137 266
c-81 -23 -136 -83 -136 -170zM222 511c0 -76 91 -122 93 -122c25 17 74 34 74 103c0 62 -30 117 -90 117c-51 0 -77 -51 -77 -98z" />
    <glyph glyph-name="quoteright" unicode="&#x2019;" horiz-adv-x="222" 
d="M63 470l-9 11c29 24 53 50 53 90c0 22 -11 50 -11 80c0 22 16 45 39 45c37 0 49 -30 49 -63c0 -71 -63 -130 -121 -163z" />
    <glyph glyph-name="parenleft" unicode="(" horiz-adv-x="389" 
d="M360 688l9 -10c-130 -134 -194 -261 -194 -434c0 -182 81 -321 197 -434l-13 -10c-140 117 -272 250 -272 444c0 183 133 341 273 444z" />
    <glyph glyph-name="parenright" unicode=")" horiz-adv-x="389" 
d="M12 -200l-9 10c130 134 194 261 194 434c0 182 -81 321 -197 434l13 10c140 -117 272 -250 272 -444c0 -183 -133 -341 -273 -444z" />
    <glyph glyph-name="asterisk" unicode="*" 
d="M257 547h-14c-8 26 -21 52 -25 79c-3 22 9 44 32 44s35 -22 32 -44c-4 -27 -17 -53 -25 -79zM213 535l-10 -10c-24 12 -51 22 -73 38c-18 13 -25 37 -9 54c17 16 41 9 54 -9c16 -22 26 -49 38 -73zM191 495v-14c-26 -9 -52 -21 -79 -25c-22 -3 -44 9 -44 32s22 35 44 32
c27 -4 53 -16 79 -25zM203 451l10 -10c-12 -24 -22 -51 -38 -73c-13 -18 -37 -25 -54 -9c-16 17 -9 41 9 54c22 16 49 26 73 38zM243 429h14c9 -26 21 -52 25 -79c3 -22 -9 -44 -32 -44s-35 22 -32 44c4 27 16 53 25 79zM287 441l10 10c24 -12 51 -22 73 -38
c18 -13 25 -37 9 -54c-17 -16 -41 -9 -54 9c-16 22 -26 49 -38 73zM309 481v14c26 9 52 21 79 25c22 3 44 -9 44 -32s-22 -35 -44 -32c-27 4 -53 16 -79 25zM297 525l-10 10c12 24 22 51 38 73c13 18 37 25 54 9c16 -17 9 -41 -9 -54c-22 -16 -49 -26 -73 -38z" />
    <glyph glyph-name="plus" unicode="+" 
d="M225 209v159h50v-159h158v-50h-158v-159h-50v159h-158v50h158z" />
    <glyph glyph-name="comma" unicode="," horiz-adv-x="250" 
d="M25 -118l-11 11c28 19 63 64 63 99c0 37 -18 58 -18 84c0 29 23 48 50 48c34 0 48 -24 48 -66c0 -86 -68 -132 -132 -176z" />
    <glyph glyph-name="hyphen" unicode="-" horiz-adv-x="333" 
d="M30 147l7 72c19 5 39 8 59 8c37 0 73 -8 110 -8c22 0 43 4 64 10l-11 -74c-17 -4 -34 -6 -52 -6c-32 0 -66 8 -88 8c-30 0 -60 -2 -89 -10z" />
    <glyph glyph-name="period" unicode="." horiz-adv-x="250" 
d="M112 106c30 0 56 -24 56 -56s-26 -56 -56 -56s-56 24 -56 56s26 56 56 56z" />
    <glyph glyph-name="slash" unicode="/" horiz-adv-x="278" 
d="M33 -20h-51l263 690h51z" />
    <glyph glyph-name="zero" unicode="0" 
d="M249 666c100 0 205 -90 205 -341s-105 -341 -205 -341s-204 90 -204 341s104 341 204 341zM250 636c-79 0 -117 -120 -117 -310s38 -312 117 -312s116 122 116 312s-37 310 -116 310z" />
    <glyph glyph-name="one" unicode="1" 
d="M97 -4v12c77 9 109 20 109 110v377c0 101 -12 113 -104 115v16c52 3 115 14 161 40h23v-594c0 -44 24 -54 105 -64v-12c-52 2 -104 4 -156 4c-46 0 -92 -2 -138 -4z" />
    <glyph glyph-name="two" unicode="2" 
d="M20 -4l-6 16l151 155c84 87 165 194 165 321c0 65 -32 148 -109 148c-57 0 -111 -21 -111 -88c0 -33 36 -44 36 -87c0 -28 -22 -43 -48 -43c-43 0 -60 43 -60 80c0 98 80 168 176 168c128 0 204 -73 204 -200c0 -152 -212 -298 -308 -398h180c80 0 94 11 141 77l12 -10
l-69 -139c-51 2 -101 4 -152 4c-67 0 -135 -2 -202 -4z" />
    <glyph glyph-name="three" unicode="3" 
d="M456 654l5 -14l-241 -260l2 -2c17 4 36 6 56 6c84 0 158 -62 158 -190c0 -112 -84 -210 -233 -210c-79 0 -181 38 -181 132c0 32 15 59 49 59c38 0 48 -29 48 -62c0 -12 -5 -24 -5 -36c0 -45 65 -63 100 -63c107 0 134 100 134 190c0 62 -35 144 -107 144
c-43 0 -61 -15 -92 -45l-19 15l221 262h-181c-50 0 -64 -51 -83 -88l-14 2l35 160c55 -2 109 -4 164 -4c46 0 138 2 184 4z" />
    <glyph glyph-name="four" unicode="4" 
d="M312 201h-323l-4 17c131 144 283 308 412 472h52v-12l-380 -413h243v217l65 64h7v-546h-72v201z" />
    <glyph glyph-name="five" unicode="5" 
d="M86 253l-22 6l102 391h73c16 -17 61 -24 84 -24c36 0 71 12 102 32l14 -16c-64 -44 -118 -78 -198 -78c-17 0 -36 4 -53 8l-63 -210c31 15 68 30 113 30c116 0 205 -59 205 -194c0 -138 -109 -214 -239 -214c-71 0 -175 46 -175 129c0 37 13 62 47 62c28 0 51 -21 51 -55
c0 -26 -8 -34 -8 -52c0 -34 67 -54 102 -54c63 0 134 56 134 172c0 91 -43 168 -139 168c-68 0 -109 -42 -130 -101z" />
    <glyph glyph-name="six" unicode="6" 
d="M31 240c0 220 185 426 400 426c16 0 37 -9 37 -25c0 -20 -16 -33 -32 -33c-25 0 -38 12 -72 12c-134 0 -239 -162 -248 -294c31 25 86 54 127 54c105 0 204 -48 204 -202c0 -92 -67 -194 -198 -194c-155 0 -218 116 -218 256zM119 209c0 -155 85 -197 126 -197
c84 0 114 81 114 153c0 87 -32 181 -132 181c-73 0 -108 -74 -108 -137z" />
    <glyph glyph-name="seven" unicode="7" 
d="M68 490l-12 1l40 163c49 -2 98 -4 147 -4h130c26 0 86 2 112 4l7 -16c-144 -170 -344 -460 -375 -638h-85c60 210 278 451 371 570v6h-251c-49 0 -63 -51 -84 -86z" />
    <glyph glyph-name="eight" unicode="8" 
d="M380 133c0 104 -123 152 -192 208c-59 -27 -95 -83 -95 -147c0 -98 57 -180 152 -180c74 0 135 39 135 119zM354 506c0 77 -50 130 -127 130c-59 0 -103 -43 -103 -102c0 -71 104 -122 160 -160c50 33 70 73 70 132zM452 172c0 -127 -105 -188 -221 -188
c-109 0 -216 67 -216 185c0 94 70 150 149 186c-50 33 -118 85 -118 152c0 107 98 159 193 159c90 0 187 -53 187 -153c0 -77 -53 -125 -119 -153c61 -45 145 -102 145 -188z" />
    <glyph glyph-name="nine" unicode="9" 
d="M25 -16v24c213 0 320 116 330 303c-37 -25 -80 -41 -125 -41c-124 0 -203 78 -203 202c0 117 88 194 203 194c160 0 212 -133 212 -271c0 -251 -110 -411 -417 -411zM221 636c-82 0 -106 -85 -106 -152c0 -73 43 -184 130 -184c81 0 109 58 109 132
c0 79 -34 204 -133 204z" />
    <glyph glyph-name="colon" unicode=":" horiz-adv-x="250" 
d="M112 106c30 0 56 -24 56 -56s-26 -56 -56 -56s-56 24 -56 56s26 56 56 56zM112 380c30 0 56 -24 56 -56s-26 -56 -56 -56s-56 24 -56 56s26 56 56 56z" />
    <glyph glyph-name="semicolon" unicode=";" horiz-adv-x="250" 
d="M25 -118l-11 11c28 19 63 64 63 99c0 37 -18 58 -18 84c0 29 23 48 50 48c34 0 48 -24 48 -66c0 -86 -68 -132 -132 -176zM112 380c30 0 56 -24 56 -56s-26 -56 -56 -56s-56 24 -56 56s26 56 56 56z" />
    <glyph glyph-name="less" unicode="&#x3c;" 
d="M433 43v-49l-366 159v50l366 171v-50l-320 -146z" />
    <glyph glyph-name="equal" unicode="=" 
d="M433 280v-50h-366v50h366zM433 139v-50h-366v50h366z" />
    <glyph glyph-name="greater" unicode="&#x3e;" 
d="M67 -6v49l320 135l-320 146v50l366 -171v-50z" />
    <glyph glyph-name="question" unicode="?" 
d="M226 156h-13c-3 24 -7 47 -7 70c0 146 102 190 102 322c0 48 -20 100 -77 100c-59 0 -79 -46 -79 -98c0 -15 3 -32 6 -48l-71 -19c-5 13 -7 30 -7 44c0 96 76 143 164 143c83 0 152 -58 152 -143c0 -121 -113 -162 -155 -275c-11 -30 -16 -63 -15 -96zM228 104
c30 0 56 -24 56 -56s-26 -56 -56 -56s-56 24 -56 56s26 56 56 56z" />
    <glyph glyph-name="at" unicode="@" horiz-adv-x="800" 
d="M511 396c0 41 -14 64 -44 64c-49 0 -142 -73 -142 -198c0 -61 30 -84 67 -84c41 0 106 75 119 218zM526 449l11 40h67l-65 -258c-4 -13 -11 -62 37 -62c87 0 136 118 136 206c0 115 -107 269 -294 269c-161 0 -287 -123 -287 -345c0 -143 114 -285 296 -285
c89 0 141 22 198 48l14 -26c-65 -28 -133 -56 -211 -56c-261 0 -375 195 -375 330c0 215 167 360 365 360c184 0 328 -126 328 -294c0 -102 -66 -239 -186 -239c-66 0 -90 58 -89 71h-2c-11 -17 -57 -64 -115 -70c-26 -1 -97 8 -97 124c0 69 63 239 198 239
c46 0 58 -27 71 -52z" />
    <glyph glyph-name="A" unicode="A" horiz-adv-x="704" 
d="M427 289h-209l-66 -181c-4 -10 -8 -18 -8 -27c0 -48 64 -68 94 -73v-12c-40 2 -80 4 -121 4c-40 0 -76 -2 -119 -4v12c83 18 103 82 131 150l173 425c4 9 8 17 8 24s-6 22 -12 33c35 6 57 18 87 30l208 -572c19 -52 48 -82 113 -90v-12c-53 2 -105 4 -159 4
c-73 0 -99 -2 -145 -4v12c56 7 99 29 99 66c0 11 -6 22 -9 31zM416 319l-90 254l-98 -254h188z" />
    <glyph glyph-name="B" unicode="B" horiz-adv-x="685" 
d="M139 158v334c0 112 -7 142 -102 150v12c41 -2 81 -4 122 -4c53 0 105 8 166 8c111 0 265 -42 265 -187c0 -60 -43 -114 -99 -132v-2c91 -29 146 -89 146 -188c0 -123 -117 -159 -234 -159c-90 0 -181 10 -271 10c-31 0 -62 -2 -93 -4v12c93 8 100 38 100 150zM229 334
v-280c10 -19 84 -34 136 -34c107 0 172 59 172 166c0 58 -43 109 -89 141c-32 -5 -64 -11 -97 -11c-41 0 -83 4 -122 18zM229 616v-250c36 -19 73 -24 112 -24c85 0 149 49 149 138c0 90 -80 148 -168 148c-32 0 -62 -2 -93 -12z" />
    <glyph glyph-name="C" unicode="C" horiz-adv-x="704" 
d="M638 426h-14c-36 120 -112 208 -240 208c-164 0 -228 -138 -228 -298s86 -300 252 -300c122 0 211 68 280 175l25 -20c-90 -135 -177 -211 -335 -211c-179 0 -330 142 -330 345s151 345 330 345c99 0 170 -28 242 -30c0 -55 11 -157 18 -214z" />
    <glyph glyph-name="D" unicode="D" horiz-adv-x="833" 
d="M39 -4v12c88 8 99 44 99 76v462c0 58 -7 88 -99 96v12c35 -2 69 -4 104 -4c94 0 168 14 253 14c215 0 392 -138 392 -357c0 -221 -173 -309 -359 -309c-142 0 -199 2 -256 2c-45 0 -89 -2 -134 -4zM228 403v-327c43 -40 102 -54 157 -54c205 0 295 108 295 308
c0 174 -132 310 -313 310c-48 0 -91 -10 -133 -28c-5 -69 -6 -139 -6 -209z" />
    <glyph glyph-name="E" unicode="E" horiz-adv-x="685" 
d="M230 348v-309c22 -5 74 -13 111 -13c161 0 244 52 340 180l11 -9l-91 -201c-23 2 -47 4 -70 4h-376c-39 0 -77 -2 -116 -4v12c95 8 101 38 101 150v334c0 112 -6 142 -103 150v12c90 -2 157 -4 279 -4c93 0 187 2 282 4c-2 -31 -2 -57 -2 -83c0 -29 4 -58 6 -94l-13 -4
c-34 129 -118 155 -219 155c-47 0 -93 -2 -140 -6v-250c26 0 51 2 77 2c91 0 147 31 159 128h12c0 -48 -2 -96 -2 -143c0 -48 2 -96 2 -144h-12c-23 113 -65 133 -172 133h-64z" />
    <glyph glyph-name="F" unicode="F" horiz-adv-x="630" 
d="M232 348v-207c0 -106 14 -112 122 -133v-12c-57 2 -113 4 -170 4c-49 0 -98 -2 -147 -4v12c95 8 105 38 105 150v334c0 112 -10 142 -105 150v12c38 -2 132 -4 168 -4h217c68 0 114 2 172 4c-2 -28 -4 -55 -4 -82c0 -35 2 -69 4 -103h-16c-43 152 -135 155 -276 155
c-23 0 -45 -2 -70 -2v-248h80c80 0 119 31 146 107h12c-2 -45 -3 -91 -3 -136c0 -48 1 -85 3 -132h-12c-26 100 -54 126 -139 133c-24 2 -53 2 -87 2z" />
    <glyph glyph-name="G" unicode="G" horiz-adv-x="778" 
d="M656 440h-12c-50 102 -110 200 -240 200c-151 0 -242 -166 -242 -314c0 -168 91 -310 242 -310c62 0 127 9 180 48v129c0 47 -36 69 -103 71v12c51 -2 88 -4 142 -4c49 0 99 2 148 4v-12c-56 -4 -97 -18 -97 -82v-140c-91 -31 -183 -62 -267 -62
c-178 0 -357 122 -357 345c0 196 179 345 357 345c109 0 173 -21 225 -35c0 -44 17 -151 24 -195z" />
    <glyph glyph-name="H" unicode="H" horiz-adv-x="833" 
d="M602 370v122c0 112 -7 142 -104 150v12c54 -2 109 -4 163 -4c44 0 88 2 131 4v-12c-93 -8 -100 -38 -100 -150v-334c0 -112 7 -142 105 -150v-12c-51 2 -101 4 -152 4c-49 0 -97 -2 -145 -4v12c95 8 102 38 102 150v180h-371v-180c0 -112 7 -142 105 -150v-12
c-51 2 -101 4 -152 4c-49 0 -97 -2 -145 -4v12c95 8 102 38 102 150v334c0 112 -7 142 -104 150v12c54 -2 109 -4 163 -4c44 0 88 2 131 4v-12c-93 -8 -100 -38 -100 -150v-122h371z" />
    <glyph glyph-name="I" unicode="I" horiz-adv-x="389" 
d="M47 -4v12c95 8 102 38 102 150v334c0 112 -7 142 -104 150v12c54 -2 109 -4 163 -4c44 0 88 2 131 4v-12c-93 -8 -100 -38 -100 -150v-334c0 -112 7 -142 105 -150v-12c-51 2 -101 4 -152 4c-49 0 -97 -2 -145 -4z" />
    <glyph glyph-name="J" unicode="J" horiz-adv-x="630" 
d="M276 642v12c49 -2 96 -4 145 -4c55 0 109 2 164 4v-12c-69 -9 -93 -24 -93 -90v-380c0 -129 -129 -192 -256 -192c-67 0 -209 38 -209 156c0 36 20 75 67 75c32 0 61 -27 61 -51c0 -18 -4 -49 -17 -63c11 -70 62 -85 113 -85c134 0 151 106 151 190v332
c0 88 -40 99 -126 108z" />
    <glyph glyph-name="K" unicode="K" horiz-adv-x="741" 
d="M228 291v-133c0 -112 7 -142 105 -150v-12c-51 2 -101 4 -152 4c-49 0 -97 -2 -145 -4v12c95 8 102 38 102 150v334c0 112 -7 142 -104 150v12c54 -2 109 -4 163 -4c44 0 88 2 131 4v-12c-93 -8 -100 -38 -100 -150v-169l152 124c55 45 105 103 105 140
c0 41 -39 54 -73 55v12c50 -2 99 -4 149 -4c53 0 106 2 159 4v-12c-69 -8 -114 -36 -206 -115l-124 -106l202 -297c39 -57 94 -112 163 -116v-12c-57 2 -115 4 -172 4c-52 0 -103 -2 -155 -4v12c48 3 89 17 89 61c0 19 -16 37 -42 75l-151 222z" />
    <glyph glyph-name="L" unicode="L" horiz-adv-x="648" 
d="M361 654v-12c-128 -18 -133 -42 -133 -123v-480c36 -7 70 -13 104 -13c157 0 227 63 306 194h15l-77 -224c-48 2 -97 4 -145 4h-294c-33 0 -67 -2 -100 -4v12c87 8 101 36 101 88v396c0 112 -6 142 -101 150v12c52 -2 103 -4 155 -4c56 0 113 2 169 4z" />
    <glyph glyph-name="M" unicode="M" horiz-adv-x="963" 
d="M609 642v12c48 -2 96 -4 144 -4c42 0 85 2 127 4v-12c-56 -9 -96 -25 -96 -89c0 -67 45 -328 74 -453c12 -52 24 -81 112 -92v-12c-53 2 -106 4 -159 4c-50 0 -99 -2 -149 -4v12c57 9 104 19 104 87c0 16 -1 43 -7 78l-69 403h-2c-75 -191 -168 -375 -230 -576h-2
c-62 204 -148 397 -238 586h-2c-22 -147 -45 -378 -45 -447c0 -88 20 -127 116 -131v-12c-55 2 -109 4 -164 4c-41 0 -82 -2 -123 -4v12c56 4 113 34 122 84c8 46 14 100 21 150l48 356c-28 23 -69 37 -108 44v12c57 -2 114 -4 171 -4c41 0 82 2 123 4v-12
c-25 -6 -51 -20 -51 -53c0 -23 9 -44 18 -66l141 -346c68 140 131 283 181 431c-15 17 -36 27 -57 34z" />
    <glyph glyph-name="N" unicode="N" horiz-adv-x="815" 
d="M16 642v12c47 -2 84 -4 140 -4c29 0 57 2 86 4c53 -71 328 -396 409 -507h2c0 40 1 79 1 119v116c0 171 -18 251 -125 260v12c47 -2 94 -4 141 -4c43 0 87 2 130 4v-12c-84 -12 -110 -43 -110 -124v-530h-37c-146 230 -337 438 -457 568c-1 -34 -2 -68 -2 -102v-175
c0 -236 10 -258 134 -271v-12c-66 2 -132 4 -198 4c-38 0 -76 -2 -114 -4v12c92 12 134 17 136 109l12 459c-43 35 -95 53 -148 66z" />
    <glyph glyph-name="O" unicode="O" horiz-adv-x="833" 
d="M47 325c0 215 167 345 370 345s370 -130 370 -345s-167 -345 -370 -345s-370 130 -370 345zM153 325c0 -163 98 -309 264 -309s264 146 264 309s-98 309 -264 309s-264 -146 -264 -309z" />
    <glyph glyph-name="P" unicode="P" horiz-adv-x="630" 
d="M337 8v-12c-50 2 -100 4 -151 4c-49 0 -97 -2 -149 -4v12c99 8 106 38 106 150v334c0 112 -7 142 -104 150v12c44 -2 88 -4 132 -4c63 0 126 10 189 10c100 0 229 -74 229 -197c0 -128 -129 -173 -232 -173c-40 0 -84 3 -124 18v-150c0 -112 7 -142 104 -150zM233 617
v-273c32 -17 67 -22 101 -22c84 0 155 51 155 139c0 105 -69 171 -166 171c-24 0 -59 -2 -90 -15z" />
    <glyph glyph-name="Q" unicode="Q" horiz-adv-x="833" 
d="M839 -40l17 -16c-74 -97 -116 -154 -247 -154c-148 0 -252 144 -401 144c-32 0 -63 -12 -91 -27l-14 16c46 29 88 41 142 41c147 0 299 -104 414 -104c86 0 128 36 180 100zM47 325c0 215 167 345 370 345s370 -130 370 -345s-167 -345 -370 -345s-370 130 -370 345z
M153 325c0 -163 98 -309 264 -309s264 146 264 309s-98 309 -264 309s-264 -146 -264 -309z" />
    <glyph glyph-name="R" unicode="R" horiz-adv-x="722" 
d="M738 12v-12h-180c-82 90 -158 187 -212 295c-26 0 -89 10 -115 19v-156c0 -112 7 -142 105 -150v-12c-51 2 -101 4 -152 4c-49 0 -97 -2 -145 -4v12c95 8 102 38 102 150v334c0 112 -7 142 -102 150v12c43 -2 85 -4 128 -4c37 0 119 10 170 10c116 0 251 -58 251 -195
c0 -92 -70 -144 -155 -161c56 -95 177 -278 305 -292zM231 416v-68c29 -10 62 -17 93 -17c103 0 164 45 164 153c0 87 -73 146 -157 146c-33 0 -66 -2 -96 -11c-2 -64 -4 -128 -4 -203z" />
    <glyph glyph-name="S" unicode="S" horiz-adv-x="593" 
d="M505 464h-14c-35 86 -111 174 -213 174c-76 0 -130 -24 -130 -96c0 -172 389 -131 389 -374c0 -130 -102 -188 -224 -188c-66 0 -151 29 -182 29c-15 0 -28 -6 -42 -11c-12 76 -29 149 -46 223l13 7c49 -92 135 -216 255 -216c78 0 148 32 148 119
c0 191 -389 159 -389 367c0 105 87 172 186 172c49 0 87 -8 124 -16c38 -8 74 -17 117 -17c0 -58 1 -116 8 -173z" />
    <glyph glyph-name="T" unicode="T" horiz-adv-x="648" 
d="M176 -4v12c95 8 102 38 102 150v464c-139 0 -184 -10 -234 -168l-13 4l14 196c55 -2 111 -4 166 -4h235c53 0 105 2 158 4l14 -196l-13 -4c-50 158 -95 168 -237 168v-464c0 -112 7 -142 105 -150v-12c-51 2 -101 4 -152 4c-49 0 -97 -2 -145 -4z" />
    <glyph glyph-name="U" unicode="U" horiz-adv-x="796" 
d="M128 198v355c0 74 -30 78 -86 89v12c55 -2 110 -4 165 -4c40 0 79 2 119 4v-12c-86 -7 -108 -34 -108 -114v-326c0 -124 89 -172 196 -172c170 0 212 115 212 180v280c0 107 -16 142 -96 152v12c41 -2 82 -4 123 -4c34 0 68 2 102 4v-12c-57 -8 -93 -18 -93 -130v-299
c0 -159 -122 -233 -272 -233c-135 0 -262 73 -262 218z" />
    <glyph glyph-name="V" unicode="V" horiz-adv-x="704" 
d="M-13 642v12c46 -2 92 -4 138 -4c54 0 109 2 162 4v-12c-37 -5 -92 -12 -92 -62c0 -13 10 -44 29 -90l157 -380l130 307c33 79 50 137 50 165c0 44 -42 55 -82 60v12c45 -2 90 -4 134 -4c37 0 73 2 109 4v-12c-94 -10 -122 -112 -154 -185l-208 -467h-22l-233 548
c-24 57 -56 99 -118 104z" />
    <glyph glyph-name="W" unicode="W" horiz-adv-x="1000" 
d="M-11 642v12c48 -2 96 -4 143 -4c53 0 105 2 157 4v-12c-45 -5 -95 -14 -95 -70c0 -18 13 -46 27 -83l139 -367l124 307l-52 130c-20 51 -60 80 -113 83v12c44 -2 88 -4 132 -4c56 0 112 2 167 4v-12c-35 -3 -95 -15 -95 -60c0 -12 6 -31 19 -65l149 -395l152 383
c10 26 20 65 20 80c0 41 -59 54 -90 57v12c44 -2 87 -4 130 -4c39 0 78 2 116 4v-12c-79 -9 -105 -70 -127 -120l-228 -532h-17l-146 397l-167 -397h-18l-203 539c-39 104 -79 106 -124 113z" />
    <glyph glyph-name="X" unicode="X" horiz-adv-x="741" 
d="M2 -4v12c77 6 108 44 151 98l178 220l-149 202c-51 70 -98 103 -163 114v12c48 -2 97 -4 145 -4c51 0 102 2 153 4v-12c-29 -2 -65 -17 -65 -51c0 -14 13 -36 38 -70l100 -137l92 125c25 35 42 64 42 92c0 30 -42 40 -63 41v12c37 -2 74 -4 111 -4c43 0 86 2 129 4v-12
c-99 -15 -138 -80 -194 -151l-101 -128l164 -220c35 -47 98 -129 182 -135v-12c-59 2 -118 4 -177 4c-53 0 -105 -2 -158 -4v12c42 9 92 10 92 65c0 11 -22 45 -51 85l-110 148l-106 -142c-30 -40 -52 -79 -52 -95c0 -53 63 -57 102 -61v-12c-60 2 -120 4 -180 4
c-37 0 -73 -2 -110 -4z" />
    <glyph glyph-name="Y" unicode="Y" horiz-adv-x="722" 
d="M-20 642v12c55 -2 109 -4 164 -4c52 0 105 2 157 4v-12c-33 -6 -82 -20 -82 -62c0 -14 15 -39 41 -74l142 -192l118 185c18 28 26 55 26 77c0 38 -38 64 -78 66v12c47 -2 94 -4 141 -4c42 0 85 2 127 4v-12c-95 -19 -148 -108 -187 -164l-137 -200v-147
c0 -97 28 -116 120 -123v-12c-59 2 -118 4 -178 4c-49 0 -99 -2 -148 -4v12c88 7 116 26 116 123v157l-181 232c-37 48 -76 102 -161 122z" />
    <glyph glyph-name="Z" unicode="Z" horiz-adv-x="704" 
d="M652 654l7 -12c-168 -196 -357 -440 -485 -610c20 -5 54 -6 112 -6c156 0 298 36 355 194h20l-76 -224c-117 2 -234 4 -351 4c-61 0 -122 -2 -183 -4l-8 12l487 616h-134c-117 0 -244 -35 -267 -168h-14c-1 24 2 48 2 71c0 42 4 86 11 127c85 -2 187 -4 255 -4
c90 0 179 2 269 4z" />
    <glyph glyph-name="bracketleft" unicode="[" horiz-adv-x="389" 
d="M104 -184v854h262v-34h-178v-786h178v-34h-262z" />
    <glyph glyph-name="backslash" unicode="\" horiz-adv-x="278" 
d="M-60 670h50l348 -690h-50z" />
    <glyph glyph-name="bracketright" unicode="]" horiz-adv-x="389" 
d="M269 670v-854h-262v34h178v786h-178v34h262z" />
    <glyph glyph-name="asciicircum" unicode="^" 
d="M98 285h-55l184 365h46l184 -365h-55l-152 301z" />
    <glyph glyph-name="underscore" unicode="_" 
d="M500 -125h-500v50h500v-50z" />
    <glyph glyph-name="quoteleft" unicode="&#x2018;" horiz-adv-x="222" 
d="M159 706l9 -11c-29 -24 -53 -50 -53 -90c0 -22 11 -50 11 -80c0 -22 -16 -45 -39 -45c-37 0 -49 30 -49 63c0 71 63 130 121 163z" />
    <glyph glyph-name="a" unicode="a" horiz-adv-x="463" 
d="M136 277l-82 15c20 83 77 92 150 92c70 0 143 -28 143 -111v-185c0 -25 13 -48 41 -48c26 0 46 19 65 34l10 -11c-28 -26 -72 -79 -113 -79c-28 0 -59 40 -78 58c-42 -29 -99 -58 -150 -58c-57 0 -108 39 -108 99c0 110 133 124 259 126v76c0 49 -34 77 -81 77
c-34 0 -56 -41 -56 -85zM271 69v101c-22 6 -44 9 -67 9c-52 0 -106 -23 -106 -82c0 -45 37 -63 76 -63c42 0 81 23 97 35z" />
    <glyph glyph-name="b" unicode="b" horiz-adv-x="537" 
d="M-1 681v12l156 19c-2 -124 -3 -248 -5 -372c36 27 79 44 131 44c117 0 205 -78 205 -187c0 -139 -96 -213 -217 -213c-87 0 -179 48 -194 63v573c0 47 -25 61 -76 61zM398 184c0 98 -49 170 -127 170c-85 -2 -125 -40 -127 -170c2 -130 42 -168 127 -170
c78 0 127 72 127 170z" />
    <glyph glyph-name="c" unicode="c" horiz-adv-x="444" 
d="M380 216h-12c-28 67 -64 142 -148 142c-83 0 -115 -87 -115 -165c0 -88 61 -167 154 -167c49 0 93 20 133 48l14 -16c-60 -49 -114 -74 -186 -74c-104 0 -195 90 -195 200s91 200 195 200c55 0 100 -7 147 -16z" />
    <glyph glyph-name="d" unicode="d" horiz-adv-x="537" 
d="M432 712v-611c0 -69 13 -89 84 -89v-12c-53 0 -107 -2 -161 -4v37c-30 -26 -90 -49 -154 -49c-109 0 -181 90 -181 192c0 120 92 208 211 208c44 0 86 -18 123 -41v259c0 65 -17 76 -85 82v12zM354 84v192c-8 37 -64 80 -125 80c-90 0 -125 -89 -125 -170
s35 -170 125 -170c61 0 117 43 125 68z" />
    <glyph glyph-name="e" unicode="e" horiz-adv-x="444" 
d="M394 210h-290c0 -138 82 -176 135 -176c55 0 100 17 139 56l17 -16c-54 -58 -107 -90 -187 -90c-115 0 -184 98 -184 200s69 200 184 200c105 0 171 -59 186 -174zM106 240h193c-7 73 -24 114 -99 114c-57 0 -94 -61 -94 -114z" />
    <glyph glyph-name="f" unicode="f" horiz-adv-x="315" 
d="M7 -4v12c69 3 73 38 73 100v225h-49l6 30h43v107c0 91 48 242 178 242c64 0 115 -36 115 -92c0 -32 -8 -42 -39 -42c-20 0 -27 8 -27 50c0 20 -16 64 -64 64c-68 0 -85 -92 -85 -138v-191h127v-30h-127v-225c0 -62 4 -97 113 -100v-12c-46 2 -92 4 -138 4
c-42 0 -84 -2 -126 -4z" />
    <glyph glyph-name="g" unicode="g" 
d="M470 306l-54 -19c3 10 4 22 4 33c0 14 -15 22 -34 22c-11 0 -28 -9 -36 -13c11 -28 17 -52 17 -82c0 -71 -53 -128 -153 -128c-32 0 -64 8 -92 24c-22 -13 -48 -29 -48 -60s20 -39 78 -39c26 0 81 6 117 6c92 0 155 -24 155 -128c0 -125 -126 -172 -232 -172
c-84 0 -186 34 -186 135c0 39 18 73 46 99c-21 16 -30 39 -30 65c0 53 31 90 78 110c-26 19 -39 53 -39 91c0 76 58 134 144 134c46 0 90 -8 127 -37c31 15 61 33 96 33c24 0 44 -21 44 -34c0 -16 1 -33 -2 -40zM219 -188c56 0 171 15 171 92c0 57 -46 76 -134 76
c-98 0 -145 -3 -183 -3c-10 -17 -15 -43 -15 -65c0 -77 100 -100 161 -100zM135 252c0 -55 25 -107 79 -107s79 52 79 107s-25 106 -79 106s-79 -51 -79 -106z" />
    <glyph glyph-name="h" unicode="h" horiz-adv-x="537" 
d="M502 8v-12c-39 2 -84 4 -129 4c-30 0 -59 -2 -86 -4v12c42 8 67 16 67 60v161c0 68 -29 107 -91 107c-45 0 -103 -31 -103 -56v-212c0 -44 25 -52 76 -60v-12c-45 2 -90 4 -135 4c-30 0 -59 -2 -89 -4v12c45 8 70 16 70 60v510c0 97 -16 102 -75 105v12l153 17v-387
c36 28 86 59 129 59c74 0 143 -33 143 -140v-176c0 -44 25 -52 70 -60z" />
    <glyph glyph-name="i" unicode="i" horiz-adv-x="259" 
d="M81 84v165c0 64 -4 97 -74 105v14l152 10v-294c0 -65 20 -74 79 -76v-12c-47 2 -94 4 -141 4c-30 0 -60 -2 -90 -4v12c54 2 74 11 74 76zM110 672c29 0 53 -26 53 -55s-24 -55 -53 -55s-53 26 -53 55s24 55 53 55z" />
    <glyph glyph-name="j" unicode="j" horiz-adv-x="259" 
d="M14 354v14l152 10v-344c0 -128 -100 -211 -199 -284l-12 14c108 94 133 157 133 298v196c0 62 -18 96 -74 96zM117 674c29 0 53 -26 53 -55s-24 -55 -53 -55s-53 26 -53 55s24 55 53 55z" />
    <glyph glyph-name="k" unicode="k" horiz-adv-x="537" 
d="M5 -4v12c71 8 72 33 72 114v464c0 78 -23 94 -75 96v12l153 18v-537c30 26 148 107 148 150c0 21 -10 29 -30 31v12h195v-12c-79 -13 -138 -71 -197 -119c62 -71 138 -215 243 -229v-12c-40 2 -81 4 -122 4c-42 0 -84 -2 -126 -4v12c23 -1 53 8 53 36
c0 35 -78 118 -100 150l-64 -48v-74c0 -42 15 -57 70 -64v-12c-44 2 -87 4 -131 4c-30 0 -59 -2 -89 -4z" />
    <glyph glyph-name="l" unicode="l" horiz-adv-x="259" 
d="M-1 -4v12c68 5 75 25 75 102v502c0 52 -9 70 -69 70v12l147 18v-602c0 -77 7 -97 79 -102v-12c-39 2 -80 4 -120 4c-38 0 -75 -2 -112 -4z" />
    <glyph glyph-name="m" unicode="m" horiz-adv-x="778" 
d="M158 290v-222c0 -44 25 -52 69 -60v-12c-38 2 -83 4 -128 4c-30 0 -59 -2 -92 -4v12c48 8 73 16 73 60v204c0 63 -17 72 -68 74v12l146 20v-50c42 30 83 56 137 56c47 0 81 -19 110 -55c34 23 87 55 132 55c82 0 135 -46 135 -138v-178c0 -44 25 -52 73 -60v-12
c-42 2 -87 4 -132 4c-30 0 -59 -2 -83 -4v12c39 8 64 16 64 60v168c0 65 -38 98 -81 98c-40 0 -73 -10 -98 -32v-234c0 -44 25 -52 69 -60v-12c-38 2 -83 4 -128 4c-30 0 -59 -2 -83 -4v12c39 8 64 16 64 60v168c0 65 -13 104 -81 104c-40 0 -58 -13 -98 -50z" />
    <glyph glyph-name="n" unicode="n" horiz-adv-x="537" 
d="M14 344v12l146 22v-53c36 28 86 59 129 59c74 0 143 -33 143 -140v-176c0 -44 25 -52 70 -60v-12c-39 2 -84 4 -129 4c-30 0 -59 -2 -86 -4v12c42 8 67 16 67 60v161c0 68 -29 107 -91 107c-45 0 -103 -31 -103 -56v-212c0 -44 25 -52 76 -60v-12c-45 2 -90 4 -135 4
c-30 0 -59 -2 -89 -4v12c45 8 70 16 70 60v232c0 40 -32 44 -68 44z" />
    <glyph glyph-name="o" unicode="o" 
d="M239 384c128 0 215 -80 215 -200s-87 -200 -215 -200s-215 80 -215 200s87 200 215 200zM221 354c-75 0 -109 -82 -109 -158c0 -84 46 -182 145 -182c75 0 109 82 109 158c0 84 -47 182 -145 182z" />
    <glyph glyph-name="p" unicode="p" horiz-adv-x="537" 
d="M152 287v-198c14 -40 66 -75 124 -75c83 0 122 70 122 166c0 80 -39 168 -122 168c-58 0 -110 -25 -124 -61zM152 16v-167c0 -63 9 -77 123 -81v-12c-49 2 -99 4 -148 4c-45 0 -90 -2 -135 -4v12c55 6 82 14 82 74v436c0 56 -20 68 -75 74v11l153 15v-42
c48 35 84 48 143 48c118 0 191 -84 191 -202c0 -122 -100 -198 -216 -198c-41 0 -82 10 -118 32z" />
    <glyph glyph-name="q" unicode="q" horiz-adv-x="537" 
d="M360 61v194c-7 48 -63 103 -138 103c-85 0 -114 -82 -114 -149c0 -114 58 -189 152 -189c48 0 83 15 100 41zM363 352l12 22h87c-24 -32 -24 -56 -24 -94v-439c0 -57 26 -68 87 -73v-12c-43 2 -85 4 -128 4c-53 0 -106 -2 -159 -4v12c103 4 122 10 122 64v191
c-35 -23 -83 -39 -126 -39c-134 0 -214 93 -214 199c0 128 102 201 214 201c46 0 89 -11 129 -32z" />
    <glyph glyph-name="r" unicode="r" horiz-adv-x="389" 
d="M9 -4v12c45 8 70 16 70 60v232c0 40 -32 44 -68 44v12l146 22v-57c32 21 85 77 131 77c52 0 78 -30 80 -81l-80 -42c3 9 6 18 6 34c0 19 -15 39 -37 39c-38 0 -76 -44 -100 -68v-212c0 -44 25 -52 76 -60v-12c-45 2 -90 4 -135 4c-30 0 -59 -2 -89 -4z" />
    <glyph glyph-name="s" unicode="s" horiz-adv-x="389" 
d="M37 11l-8 116h14c37 -55 95 -113 166 -113c35 0 76 13 76 52c0 100 -247 75 -247 206c0 71 50 112 118 112c51 0 97 -20 147 -22l6 -106h-13c-28 50 -81 98 -141 98c-33 0 -65 -13 -65 -51c0 -83 247 -69 247 -202c0 -92 -66 -117 -146 -117c-62 0 -120 23 -154 27z" />
    <glyph glyph-name="t" unicode="t" horiz-adv-x="315" 
d="M75 337h-80v16c85 3 120 89 144 159h14v-145h137v-30h-137v-233c0 -34 4 -70 44 -70s63 20 90 46l9 -10c-44 -41 -84 -86 -149 -86c-56 0 -72 40 -72 86v267z" />
    <glyph glyph-name="u" unicode="u" horiz-adv-x="537" 
d="M156 384v-262c0 -54 31 -88 85 -88c43 0 90 25 110 48v211c0 34 -6 59 -79 69v11l157 11v-307c0 -51 27 -62 74 -65v-10c-51 -3 -103 -4 -152 -6v52c-47 -35 -98 -64 -157 -64c-64 0 -116 35 -116 110v207c0 40 -21 51 -75 57v13z" />
    <glyph glyph-name="v" unicode="v" 
d="M-18 360v12c84 -4 51 -2 112 -4c83 2 57 0 119 4v-12c-28 -4 -61 -17 -61 -49c0 -45 84 -203 103 -239c27 49 112 196 112 238c0 38 -25 46 -57 50v12c25 -2 68 -4 96 -4c29 0 58 2 87 4v-12c-34 -3 -67 -25 -111 -111c-45 -87 -95 -170 -134 -261h-36
c-42 96 -97 201 -137 292c-17 39 -48 74 -93 80z" />
    <glyph glyph-name="w" unicode="w" horiz-adv-x="741" 
d="M-27 360v12c51 -2 72 -4 118 -4c36 0 72 2 108 4v-13c-28 -1 -56 -21 -56 -51c0 -47 75 -178 95 -228l101 198c-12 34 -40 77 -87 82v12c26 -2 47 -4 100 -4c42 0 84 2 125 4v-12c-34 -1 -63 -19 -63 -54c0 -36 79 -187 95 -230c22 41 97 188 97 225c0 40 -16 54 -55 59
v12c30 -2 60 -4 90 -4c29 0 59 2 88 4v-12c-63 -8 -94 -90 -123 -150l-108 -222h-22l-121 263l-129 -263h-25c-37 92 -90 201 -128 279c-22 46 -59 85 -100 93z" />
    <glyph glyph-name="x" unicode="x" horiz-adv-x="519" 
d="M-13 -4v12c94 27 153 116 224 177c-61 67 -112 162 -212 175v12c43 -4 85 -4 128 -4c37 0 74 0 111 4v-13c-15 -3 -41 -13 -41 -32c0 -22 47 -84 65 -101c26 26 70 59 70 98c0 20 -23 30 -40 35v13c35 -4 70 -4 105 -4c31 0 63 0 94 4v-12c-90 -17 -146 -100 -213 -155
c50 -61 118 -181 224 -197v-12c-42 2 -85 4 -127 4c-44 0 -88 -2 -132 -4v12c20 0 58 11 58 35c0 37 -54 92 -74 123c-27 -25 -98 -87 -98 -126c0 -25 32 -32 52 -32v-12c-32 2 -63 4 -95 4c-33 0 -66 -2 -99 -4z" />
    <glyph glyph-name="y" unicode="y" 
d="M-25 360v12c40 -4 71 -4 112 -4c40 0 82 0 122 4v-12c-29 -4 -62 -15 -62 -49c0 -54 80 -187 109 -278c21 40 118 256 118 284c0 32 -31 36 -59 43v12c31 -4 61 -4 93 -4c30 0 60 0 90 4v-12c-73 -10 -146 -188 -169 -236c-168 -352 -226 -374 -311 -374
c-48 0 -97 26 -97 85c0 27 22 52 49 52c31 0 51 -15 51 -47c0 -22 -16 -39 -16 -45c0 -8 24 -9 43 -9c81 0 161 156 161 177c0 11 -96 223 -139 313c-28 60 -32 69 -95 84z" />
    <glyph glyph-name="z" unicode="z" horiz-adv-x="444" 
d="M25 -4l-9 18l270 328h-71c-77 0 -129 -22 -164 -93l-14 4l14 119c55 -2 109 -4 164 -4c54 0 109 2 163 4l11 -16l-272 -330h64c93 0 163 8 196 104l15 -5l-22 -129c-60 2 -120 4 -180 4c-55 0 -110 -2 -165 -4z" />
    <glyph glyph-name="braceleft" unicode="{" horiz-adv-x="389" 
d="M301 -188v-12c-74 0 -137 21 -137 144v183c0 66 -12 98 -61 117c49 19 61 51 61 117v183c0 123 63 144 137 144v-12c-36 -15 -53 -55 -53 -126v-173c0 -73 -11 -114 -72 -132v-2c61 -18 72 -59 72 -132v-173c0 -71 17 -111 53 -126z" />
    <glyph glyph-name="bar" unicode="|" horiz-adv-x="222" 
d="M86 0v712h50v-712h-50z" />
    <glyph glyph-name="braceright" unicode="}" horiz-adv-x="387" 
d="M71 676v12c74 0 137 -21 137 -144v-183c0 -66 12 -98 61 -117c-49 -19 -61 -51 -61 -117v-183c0 -123 -63 -144 -137 -144v12c36 15 53 55 53 126v173c0 73 11 114 72 132v2c-61 18 -72 59 -72 132v173c0 71 -17 111 -53 126z" />
    <glyph glyph-name="asciitilde" unicode="~" 
d="M445 247l36 -36c-30 -42 -63 -86 -125 -86c-37 0 -69 15 -102 33c-32 18 -69 35 -115 35c-44 0 -68 -37 -84 -72l-36 36c22 42 58 86 125 86c34 0 73 -15 111 -32c37 -16 75 -36 102 -36c40 0 65 37 88 72z" />
    <glyph glyph-name="exclamdown" unicode="&#xa1;" horiz-adv-x="389" 
d="M187 266h13c2 -8 4 -20 7 -35c13 -67 22 -133 22 -201c0 -31 -6 -63 -6 -94c0 -82 12 -121 48 -148v-8l-115 -20c-3 24 -9 48 -9 72c0 126 38 242 38 311c0 41 2 82 2 123zM193 314c-30 0 -56 24 -56 56s26 56 56 56s56 -24 56 -56s-26 -56 -56 -56z" />
    <glyph glyph-name="cent" unicode="&#xa2;" 
d="M413 88l16 -19c-47 -37 -104 -65 -165 -69v-116h-28v116c-116 0 -186 86 -186 187c0 109 82 183 186 193v108h28v-108c32 0 84 -12 103 -12c10 0 22 1 27 2l11 -154h-11c-23 58 -59 130 -130 138v-312c54 0 108 13 149 46zM236 45v309c-74 -9 -108 -80 -108 -148
c0 -71 36 -141 108 -161z" />
    <glyph glyph-name="sterling" unicode="&#xa3;" 
d="M193 341h133v-28h-132c0 -78 -8 -194 -79 -246l1 -7h175c85 0 99 3 150 73l10 -7l-64 -130c-59 2 -117 4 -176 4c-69 0 -137 -2 -206 -4v20c61 12 115 45 115 237c0 18 -3 38 -4 60h-77l12 28h65v89c0 106 72 236 180 236c65 0 145 -24 145 -104c0 -38 -17 -56 -49 -56
c-20 0 -32 6 -32 15c0 12 7 25 7 38c0 49 -30 79 -78 79c-63 0 -99 -64 -99 -177c0 -41 2 -82 3 -120z" />
    <glyph glyph-name="fraction" unicode="&#x2044;" horiz-adv-x="167" 
d="M334 666l-453 -682h-48l449 682h52z" />
    <glyph glyph-name="yen" unicode="&#xa5;" 
d="M226 131v88h-134v28h134v41l-25 47h-109v28h94l-83 157c-24 48 -51 102 -108 122v12c37 -2 73 -4 110 -4c36 0 72 2 107 4v-12c-23 -6 -56 -20 -56 -62c0 -14 10 -39 28 -74l96 -192l79 185c12 28 17 55 17 77c0 38 -25 64 -53 66v12c33 -2 65 -4 97 -4c28 0 56 2 85 4
v-12c-64 -19 -100 -107 -126 -164l-52 -115h95v-28h-109l-25 -57v-31h134v-28h-134v-88c0 -97 17 -116 80 -123v-12c-40 2 -81 4 -120 4c-34 0 -67 -2 -101 -4v12c59 7 79 26 79 123z" />
    <glyph glyph-name="florin" unicode="&#x192;" 
d="M231 344h-101l7 30h99c15 97 35 338 170 338c57 0 86 -31 86 -88c0 -26 -5 -38 -41 -38c-18 0 -33 5 -33 16c0 14 6 28 6 59c0 17 -10 27 -28 27c-38 0 -59 -81 -69 -166l-17 -148h118l-4 -30h-117l-19 -146c-10 -80 -36 -426 -186 -426c-54 0 -94 33 -94 85
c0 26 9 47 36 47c23 0 38 -21 38 -36c0 -14 -3 -24 -3 -34c0 -21 7 -38 31 -38c60 0 77 167 82 210z" />
    <glyph glyph-name="section" unicode="&#xa7;" 
d="M70 277c0 77 57 122 131 122v2c-44 34 -93 81 -93 142c0 91 70 127 152 127c60 0 122 -42 122 -106c0 -30 -24 -48 -53 -48c-33 0 -49 22 -49 44c0 40 36 45 36 59c0 9 -28 27 -70 27c-38 2 -80 -21 -80 -79c0 -87 264 -174 264 -330c0 -72 -44 -121 -134 -121v-3
c48 -34 92 -78 92 -142c0 -78 -64 -130 -139 -130c-73 0 -146 49 -146 105c0 38 23 56 49 56c35 0 53 -24 53 -47c0 -31 -24 -41 -24 -58c0 -26 48 -32 65 -32c50 0 84 28 84 79c0 106 -260 172 -260 333zM307 140c38 0 69 24 69 64c0 66 -120 171 -188 171
c-40 0 -64 -32 -64 -69c0 -66 120 -166 183 -166z" />
    <glyph glyph-name="currency" unicode="&#xa4;" 
d="M2 115l54 57c-37 46 -54 97 -54 152s15 111 56 154l-56 57l38 38l56 -55c44 37 101 55 157 55c53 0 107 -18 155 -51l52 51l38 -38l-54 -54c38 -44 54 -100 54 -155s-16 -109 -53 -155l53 -56l-38 -38l-53 58c-45 -40 -100 -58 -155 -58c-58 0 -112 17 -159 58l-53 -58z
M250 523c-106 0 -194 -88 -194 -198s88 -198 194 -198s194 88 194 198s-88 198 -194 198z" />
    <glyph glyph-name="quotesingle" unicode="'" horiz-adv-x="222" 
d="M142 589l-16 -204c-1 -8 0 -31 -15 -31s-14 23 -15 31l-16 204c-1 7 -1 16 -1 25c0 44 12 56 32 56s32 -12 32 -56c0 -9 0 -18 -1 -25z" />
    <glyph glyph-name="quotedblleft" unicode="&#x201c;" horiz-adv-x="389" 
d="M326 706l9 -11c-29 -24 -53 -50 -53 -90c0 -22 11 -50 11 -80c0 -22 -16 -45 -39 -45c-37 0 -49 30 -49 63c0 71 63 130 121 163zM159 706l9 -11c-29 -24 -53 -50 -53 -90c0 -22 11 -50 11 -80c0 -22 -16 -45 -39 -45c-37 0 -49 30 -49 63c0 71 63 130 121 163z" />
    <glyph glyph-name="guillemotleft" unicode="&#xab;" horiz-adv-x="444" 
d="M222 56l-11 -11l-142 114c-9 7 -15 14 -15 23c0 8 6 17 18 28l130 113l11 -10l-94 -126zM359 56l-11 -11l-142 114c-9 7 -15 14 -15 23c0 8 6 17 18 28l130 113l11 -10l-94 -126z" />
    <glyph glyph-name="guilsinglleft" unicode="&#x2039;" horiz-adv-x="296" 
d="M220 56l-11 -11l-142 114c-9 7 -15 14 -15 23c0 8 6 17 18 28l130 113l11 -10l-94 -126z" />
    <glyph glyph-name="guilsinglright" unicode="&#x203a;" horiz-adv-x="296" 
d="M87 45l-11 11l103 131l-94 126l11 10l130 -113c12 -11 18 -20 18 -28c0 -9 -6 -16 -15 -23z" />
    <glyph glyph-name="fi" unicode="&#xfb01;" horiz-adv-x="556" 
d="M436 590l-80 -34c0 72 -20 132 -87 132c-78 0 -115 -90 -115 -185v-140h126v-30h-126v-225c0 -62 5 -97 114 -100v-12c-46 2 -92 4 -138 4c-44 0 -86 -2 -128 -4v12c69 3 74 38 74 100v225h-51l6 30h45v103c0 91 66 246 205 246c96 0 150 -43 155 -122zM532 8v-12
c-47 2 -94 4 -141 4c-30 0 -60 -2 -90 -4v12c54 2 74 11 74 76v165c0 54 -4 97 -74 99v12l152 20v-296c0 -65 20 -74 79 -76z" />
    <glyph glyph-name="fl" unicode="&#xfb02;" horiz-adv-x="574" 
d="M395 668l73 37v-595c0 -77 7 -97 79 -102v-12c-39 2 -80 4 -120 4c-38 0 -75 -2 -112 -4v12c68 5 75 25 75 102v486l-43 -21c-4 51 -30 113 -90 113c-100 0 -102 -165 -102 -230v-95h148v-30h-148v-225c0 -62 5 -97 114 -100v-12c-46 2 -92 4 -138 4
c-42 0 -84 -2 -126 -4v12c67 3 72 38 72 100v225h-52l7 30h45v77c0 129 59 272 201 272c47 0 85 -23 117 -44z" />
    <glyph glyph-name="endash" unicode="&#x2013;" 
d="M489 159h-500l16 50h500z" />
    <glyph glyph-name="dagger" unicode="&#x2020;" 
d="M260 -156h-20c0 123 0 307 -41 404c35 41 41 116 41 187h-29c-38 0 -72 -39 -113 -39c-28 0 -44 22 -44 44c0 27 16 49 44 49c41 0 75 -34 113 -34h29v26c0 81 -36 104 -36 140c0 34 15 49 49 49c28 0 43 -15 43 -49c0 -36 -36 -59 -36 -140v-26h29c38 0 72 34 113 34
c28 0 44 -22 44 -49c0 -22 -16 -44 -44 -44c-41 0 -75 39 -113 39h-29c0 -71 6 -146 41 -187c-41 -97 -41 -281 -41 -404z" />
    <glyph glyph-name="daggerdbl" unicode="&#x2021;" 
d="M289 65h-29v-26c0 -81 36 -104 36 -140c0 -34 -15 -49 -43 -49c-34 0 -49 15 -49 49c0 36 36 59 36 140v26h-29c-38 0 -72 -34 -113 -34c-28 0 -44 22 -44 49c0 22 16 44 44 44c41 0 75 -39 113 -39h29c0 49 -6 121 -35 173c29 31 35 106 35 177h-29
c-38 0 -72 -39 -113 -39c-28 0 -44 22 -44 44c0 27 16 49 44 49c41 0 75 -34 113 -34h29v26c0 81 -36 104 -36 140c0 34 15 49 49 49c28 0 43 -15 43 -49c0 -36 -36 -59 -36 -140v-26h29c38 0 72 34 113 34c28 0 44 -22 44 -49c0 -22 -16 -44 -44 -44c-41 0 -75 39 -113 39
h-29c0 -71 6 -146 35 -177c-29 -52 -35 -124 -35 -173h29c38 0 72 39 113 39c28 0 44 -22 44 -44c0 -27 -16 -49 -44 -49c-41 0 -75 34 -113 34z" />
    <glyph glyph-name="periodcentered" unicode="&#xb7;" horiz-adv-x="250" 
d="M125 240c30 0 56 -24 56 -56s-26 -56 -56 -56s-56 24 -56 56s26 56 56 56z" />
    <glyph glyph-name="paragraph" unicode="&#xb6;" horiz-adv-x="600" 
d="M454 -212h-50v832h-59v-832h-50v451c-144 0 -205 87 -205 213c0 139 59 198 209 198h240v-22c-61 0 -85 -10 -85 -88v-752z" />
    <glyph glyph-name="bullet" unicode="&#x2022;" 
d="M251 487c90 0 162 -71 162 -162s-72 -163 -162 -163c-91 0 -163 72 -163 163s72 162 163 162z" />
    <glyph glyph-name="quotesinglbase" unicode="&#x201a;" horiz-adv-x="222" 
d="M63 -106l-9 11c29 24 53 50 53 90c0 22 -11 50 -11 80c0 22 16 45 39 45c37 0 49 -30 49 -63c0 -71 -63 -130 -121 -163z" />
    <glyph glyph-name="quotedblbase" unicode="&#x201e;" horiz-adv-x="389" 
d="M63 -106l-9 11c29 24 53 50 53 90c0 22 -11 50 -11 80c0 22 16 45 39 45c37 0 49 -30 49 -63c0 -71 -63 -130 -121 -163zM230 -106l-9 11c29 24 53 50 53 90c0 22 -11 50 -11 80c0 22 16 45 39 45c37 0 49 -30 49 -63c0 -71 -63 -130 -121 -163z" />
    <glyph glyph-name="quotedblright" unicode="&#x201d;" horiz-adv-x="389" 
d="M63 470l-9 11c29 24 53 50 53 90c0 22 -11 50 -11 80c0 22 16 45 39 45c37 0 49 -30 49 -63c0 -71 -63 -130 -121 -163zM230 470l-9 11c29 24 53 50 53 90c0 22 -11 50 -11 80c0 22 16 45 39 45c37 0 49 -30 49 -63c0 -71 -63 -130 -121 -163z" />
    <glyph glyph-name="guillemotright" unicode="&#xbb;" horiz-adv-x="444" 
d="M233 45l-11 11l103 131l-94 126l11 10l130 -113c12 -11 18 -20 18 -28c0 -9 -6 -16 -15 -23zM96 45l-11 11l103 131l-94 126l11 10l130 -113c12 -11 18 -20 18 -28c0 -9 -6 -16 -15 -23z" />
    <glyph glyph-name="ellipsis" unicode="&#x2026;" horiz-adv-x="1000" 
d="M167 106c30 0 56 -24 56 -56s-26 -56 -56 -56s-56 24 -56 56s26 56 56 56zM500 106c30 0 56 -24 56 -56s-26 -56 -56 -56s-56 24 -56 56s26 56 56 56zM833 106c30 0 56 -24 56 -56s-26 -56 -56 -56s-56 24 -56 56s26 56 56 56z" />
    <glyph glyph-name="perthousand" unicode="&#x2030;" horiz-adv-x="1000" 
d="M168 -6h-42l373 662h40zM716 193c0 139 83 199 145 199s145 -60 145 -199s-83 -199 -145 -199s-145 60 -145 199zM782 195c0 -133 37 -179 80 -179s78 46 78 179s-35 175 -78 175s-80 -42 -80 -175zM2 457c0 139 83 199 145 199s145 -60 145 -199s-83 -199 -145 -199
s-145 60 -145 199zM68 459c0 -133 37 -179 80 -179s78 46 78 179s-35 175 -78 175s-80 -42 -80 -175zM375 193c0 139 83 199 145 199s145 -60 145 -199s-83 -199 -145 -199s-145 60 -145 199zM441 195c0 -133 37 -179 80 -179s78 46 78 179s-35 175 -78 175
s-80 -42 -80 -175z" />
    <glyph glyph-name="questiondown" unicode="&#xbf;" 
d="M274 264h13c3 -24 7 -47 7 -70c0 -146 -102 -190 -102 -322c0 -48 20 -100 77 -100c59 0 79 46 79 98c0 15 -3 32 -6 48l71 19c5 -13 7 -30 7 -44c0 -96 -76 -143 -164 -143c-83 0 -152 58 -152 143c0 121 113 162 155 275c11 30 16 63 15 96zM272 314
c-30 0 -56 24 -56 56s26 56 56 56s56 -24 56 -56s-26 -56 -56 -56z" />
    <glyph glyph-name="grave" unicode="`" horiz-adv-x="259" 
d="M205 433h-44l-140 96c-16 11 -29 29 -29 44c0 21 15 32 41 32c19 0 34 -17 56 -42z" />
    <glyph glyph-name="acute" unicode="&#xb4;" horiz-adv-x="259" 
d="M66 433l116 130c22 25 37 42 56 42c26 0 41 -11 41 -32c0 -15 -13 -33 -29 -44l-140 -96h-44z" />
    <glyph glyph-name="circumflex" unicode="&#x2c6;" horiz-adv-x="259" 
d="M-16 433l111 172h69l113 -172h-41l-106 110l-107 -110h-39z" />
    <glyph glyph-name="tilde" unicode="&#x2dc;" horiz-adv-x="259" 
d="M254 571h31c-14 -55 -36 -113 -102 -113c-23 0 -47 12 -69 24c-23 12 -43 24 -61 24c-26 0 -45 -26 -49 -49h-29c10 57 35 109 100 109c21 0 42 -12 64 -24c21 -12 43 -24 64 -24c37 0 46 44 51 53z" />
    <glyph glyph-name="macron" unicode="&#xaf;" horiz-adv-x="259" 
d="M272 472h-284v56h284v-56z" />
    <glyph glyph-name="breve" unicode="&#x2d8;" horiz-adv-x="259" 
d="M0 581h32c7 -56 46 -86 97 -86s90 30 97 86h32c-4 -78 -37 -148 -128 -148s-126 70 -130 148z" />
    <glyph glyph-name="dotaccent" unicode="&#x2d9;" horiz-adv-x="259" 
d="M129 553c30 0 53 -23 53 -53s-23 -53 -53 -53s-53 23 -53 53s23 53 53 53z" />
    <glyph glyph-name="dieresis" unicode="&#xa8;" horiz-adv-x="259" 
d="M37 553c30 0 53 -23 53 -53s-23 -53 -53 -53s-53 23 -53 53s23 53 53 53zM222 553c30 0 53 -23 53 -53s-23 -53 -53 -53s-53 23 -53 53s23 53 53 53z" />
    <glyph glyph-name="ring" unicode="&#x2da;" horiz-adv-x="259" 
d="M28 536c0 57 45 102 102 102s102 -45 102 -102s-45 -102 -102 -102s-102 45 -102 102zM68 536c0 -35 27 -62 62 -62s62 27 62 62s-27 62 -62 62s-62 -27 -62 -62z" />
    <glyph glyph-name="cedilla" unicode="&#xb8;" horiz-adv-x="259" 
d="M13 -202l14 33c18 -10 40 -15 61 -15c26 0 60 8 60 39c0 26 -14 46 -40 46c-12 0 -27 -2 -37 -8l-13 6l43 101h34l-27 -67c10 2 21 4 32 4c42 0 82 -21 82 -69c0 -68 -64 -88 -121 -88c-31 0 -60 6 -88 18z" />
    <glyph glyph-name="hungarumlaut" unicode="&#x2dd;" horiz-adv-x="259" 
d="M150 433h-42l114 130c22 25 37 42 56 42c26 0 41 -11 41 -32c0 -23 -13 -33 -29 -44zM8 433h-54l109 130c14 16 33 42 57 42c26 0 43 -16 43 -38c0 -16 -17 -32 -30 -42z" />
    <glyph glyph-name="ogonek" unicode="&#x2db;" horiz-adv-x="259" 
d="M258 19v-9c-44 -17 -153 -61 -153 -122c0 -31 21 -52 52 -52c39 0 72 20 103 41l17 -32c-46 -30 -95 -57 -151 -57c-51 0 -95 34 -95 86c0 96 161 133 227 145z" />
    <glyph glyph-name="caron" unicode="&#x2c7;" horiz-adv-x="259" 
d="M277 605l-113 -172h-69l-111 172h39l107 -114l106 114h41z" />
    <glyph glyph-name="emdash" unicode="&#x2014;" horiz-adv-x="1000" 
d="M776 159h-559c-41 0 -57 -15 -76 -49h-13c13 34 27 68 35 103c20 -2 41 -4 61 -4h559c41 0 57 15 76 49h13c-13 -34 -27 -68 -35 -103c-20 2 -41 4 -61 4z" />
    <glyph glyph-name="AE" unicode="&#xc6;" horiz-adv-x="963" 
d="M880 480h-14c-36 116 -104 144 -218 144h-137v-250c27 0 55 0 82 2c87 6 138 28 149 118h12c-2 -45 -4 -86 -4 -127c0 -54 2 -108 4 -157h-12c-18 97 -54 138 -159 138h-72v-311c31 -8 65 -11 99 -11c150 0 259 39 341 171l13 -6l-87 -195c-40 2 -79 4 -119 4h-326
c-37 0 -74 -2 -110 -4v12c94 4 99 49 99 127v197h-168l-94 -186c-15 -30 -23 -57 -23 -73c0 -49 54 -61 93 -65v-12c-55 2 -110 4 -165 4c-34 0 -68 -2 -102 -4v12c83 7 134 102 171 167l164 291c17 31 41 67 41 103c0 57 -69 65 -111 73v12c68 -2 119 -4 177 -4h344
c45 0 93 2 127 5c-1 -25 -2 -51 -2 -76c0 -33 2 -66 7 -99zM265 354h156v266h-4z" />
    <glyph glyph-name="ordfeminine" unicode="&#xaa;" horiz-adv-x="278" 
d="M79 602l-56 9c16 50 53 55 101 55c45 0 94 -16 94 -73v-104c0 -15 7 -29 25 -29c17 0 30 11 42 20l7 -6c-18 -16 -47 -48 -73 -48c-19 0 -39 24 -51 35c-27 -17 -65 -35 -98 -35c-37 0 -72 24 -72 60c0 66 89 74 164 75v46c0 29 -16 37 -42 37s-42 -15 -41 -42zM162 480
v55c-12 4 -25 4 -39 4c-31 0 -63 -11 -63 -44c0 -25 21 -35 45 -35c25 0 49 13 57 20z" />
    <glyph glyph-name="Lslash" unicode="&#x141;" horiz-adv-x="648" 
d="M371 396v-32l-143 -39v-286c36 -7 70 -13 104 -13c157 0 227 63 306 194h15l-77 -224c-48 2 -97 4 -145 4h-294c-33 0 -67 -2 -100 -4v12c87 8 101 36 101 88v205l-101 -27v32l101 27v159c0 112 -6 142 -101 150v12c52 -2 103 -4 155 -4c56 0 113 2 169 4v-12
c-128 -18 -133 -42 -133 -123v-162z" />
    <glyph glyph-name="Oslash" unicode="&#xd8;" horiz-adv-x="833" 
d="M220 113l368 453c-44 42 -101 68 -171 68c-166 0 -264 -146 -264 -309c0 -80 23 -155 67 -212zM611 541l-368 -454c43 -44 102 -71 174 -71c166 0 264 146 264 309c0 82 -25 161 -70 216zM203 38l-84 -103l-26 22l82 101c-78 58 -128 149 -128 267c0 215 167 345 370 345
c78 0 150 -19 211 -55l76 94l26 -22l-74 -91c80 -59 131 -152 131 -271c0 -215 -167 -345 -370 -345c-80 0 -154 20 -214 58z" />
    <glyph glyph-name="OE" unicode="&#x152;" horiz-adv-x="1000" 
d="M520 158v344c0 110 -30 130 -92 130c-194 0 -279 -157 -279 -317c0 -175 88 -297 262 -297c107 0 111 37 109 140zM943 483l-15 -3c-44 137 -125 148 -257 148h-61v-254c32 0 61 2 87 5c58 7 96 40 111 122h12c-2 -45 -2 -91 -2 -136c0 -50 0 -100 2 -150h-13
c-21 93 -42 123 -107 129c-23 2 -60 4 -90 4v-312c30 -5 55 -6 80 -6c138 0 232 69 305 182l12 -7c-39 -73 -71 -147 -93 -209c-40 2 -81 4 -121 4h-251c-51 0 -102 -4 -159 -4c-181 0 -340 94 -340 299c0 225 183 363 382 363c54 0 94 -8 150 -8h109c85 0 169 2 256 4v-88
c0 -22 3 -52 3 -83z" />
    <glyph glyph-name="ordmasculine" unicode="&#xba;" horiz-adv-x="300" 
d="M149 666c85 0 141 -48 141 -120s-56 -120 -141 -120c-84 0 -140 48 -140 120s56 120 140 120zM138 644c-52 0 -67 -52 -67 -90c0 -49 28 -106 88 -106c52 0 69 53 69 91c0 49 -30 105 -90 105z" />
    <glyph glyph-name="ae" unicode="&#xe6;" horiz-adv-x="685" 
d="M350 242h185c3 53 -31 112 -91 112c-57 0 -94 -59 -94 -112zM132 277l-82 14c16 61 62 93 124 93c68 0 107 -11 162 -52c33 32 66 52 113 52c102 0 169 -75 179 -172h-280c-7 -86 40 -178 128 -178c54 0 105 21 135 54l17 -15c-46 -51 -118 -89 -190 -89
c-57 0 -114 22 -144 73c-51 -36 -109 -73 -173 -73c-61 0 -109 40 -109 103c0 100 125 117 260 120v70c-1 52 -30 77 -82 77c-40 0 -59 -42 -58 -77zM96 98c0 -42 33 -64 71 -64c44 0 83 23 118 48c-8 27 -12 56 -12 84c-26 8 -50 11 -77 11c-50 0 -100 -23 -100 -79z" />
    <glyph glyph-name="dotlessi" unicode="&#x131;" horiz-adv-x="259" 
d="M81 84v165c0 64 -4 97 -74 105v14l152 10v-294c0 -65 20 -74 79 -76v-12c-47 2 -94 4 -141 4c-30 0 -60 -2 -90 -4v12c54 2 74 11 74 76z" />
    <glyph glyph-name="lslash" unicode="&#x142;" horiz-adv-x="259" 
d="M-1 -4v12c68 5 75 25 75 102v237l-86 -30v33l86 30v232c0 52 -9 70 -69 70v12l147 18v-305l86 29v-33l-86 -29v-264c0 -77 7 -97 79 -102v-12c-39 2 -80 4 -120 4c-38 0 -75 -2 -112 -4z" />
    <glyph glyph-name="oslash" unicode="&#xf8;" 
d="M148 73l156 250c-22 19 -49 31 -83 31c-75 0 -109 -82 -109 -158c0 -42 12 -87 36 -123zM325 301l-157 -251c22 -22 52 -36 89 -36c75 0 109 82 109 158c0 46 -14 95 -41 129zM390 461l26 -15l-57 -91c59 -34 95 -94 95 -171c0 -120 -87 -200 -215 -200
c-38 0 -72 7 -100 20l-60 -96l-25 15l59 94c-56 34 -89 93 -89 167c0 120 87 200 215 200c35 0 66 -6 93 -16z" />
    <glyph glyph-name="oe" unicode="&#x153;" horiz-adv-x="759" 
d="M710 212h-280c0 -135 72 -178 140 -178c51 0 94 29 126 60l16 -16c-56 -59 -108 -94 -192 -94c-53 0 -103 29 -132 73c-44 -50 -97 -73 -166 -73c-111 0 -201 80 -201 200s90 200 201 200c71 0 114 -16 168 -66c39 38 80 66 136 66c105 0 173 -69 184 -172zM219 354
c-75 0 -110 -73 -110 -140c0 -81 35 -200 130 -200c86 0 117 81 117 169c0 77 -51 171 -137 171zM430 242h188c0 54 -32 112 -94 112s-94 -58 -94 -112z" />
    <glyph glyph-name="germandbls" unicode="&#xdf;" horiz-adv-x="556" 
d="M262 14l-8 104h16c13 -45 63 -100 112 -100c43 0 67 33 67 76c0 115 -169 168 -169 262c0 38 19 69 37 102s36 69 36 116c0 57 -28 108 -92 108c-85 0 -106 -110 -106 -181v-355c0 -113 7 -133 79 -138v-12c-39 2 -80 4 -120 4c-38 0 -75 -2 -112 -4v12
c68 5 75 25 75 102v223h-40l6 30h34v114c0 104 81 235 207 235c70 0 143 -32 143 -110c0 -35 -24 -67 -46 -98s-45 -55 -45 -89c0 -93 177 -159 177 -287c0 -84 -72 -140 -154 -140c-32 0 -70 9 -97 26z" />
    <glyph glyph-name="Aacute" unicode="&#xc1;" horiz-adv-x="704" 
d="M427 289h-209l-66 -181c-4 -10 -8 -18 -8 -27c0 -48 64 -68 94 -73v-12c-40 2 -80 4 -121 4c-40 0 -76 -2 -119 -4v12c83 18 103 82 131 150l173 425c4 9 8 17 8 24s-6 22 -12 33c35 6 57 18 87 30l208 -572c19 -52 48 -82 113 -90v-12c-53 2 -105 4 -159 4
c-73 0 -99 -2 -145 -4v12c56 7 99 29 99 66c0 11 -6 22 -9 31zM416 319l-90 254l-98 -254h188zM289 692l116 130c22 25 37 42 56 42c26 0 41 -11 41 -32c0 -15 -13 -33 -29 -44l-140 -96h-44z" />
    <glyph glyph-name="Acircumflex" unicode="&#xc2;" horiz-adv-x="704" 
d="M427 289h-209l-66 -181c-4 -10 -8 -18 -8 -27c0 -48 64 -68 94 -73v-12c-40 2 -80 4 -121 4c-40 0 -76 -2 -119 -4v12c83 18 103 82 131 150l173 425c4 9 8 17 8 24s-6 22 -12 33c35 6 57 18 87 30l208 -572c19 -52 48 -82 113 -90v-12c-53 2 -105 4 -159 4
c-73 0 -99 -2 -145 -4v12c56 7 99 29 99 66c0 11 -6 22 -9 31zM416 319l-90 254l-98 -254h188zM207 692l111 172h69l113 -172h-41l-106 110l-107 -110h-39z" />
    <glyph glyph-name="Adieresis" unicode="&#xc4;" horiz-adv-x="704" 
d="M427 289h-209l-66 -181c-4 -10 -8 -18 -8 -27c0 -48 64 -68 94 -73v-12c-40 2 -80 4 -121 4c-40 0 -76 -2 -119 -4v12c83 18 103 82 131 150l173 425c4 9 8 17 8 24s-6 22 -12 33c35 6 57 18 87 30l208 -572c19 -52 48 -82 113 -90v-12c-53 2 -105 4 -159 4
c-73 0 -99 -2 -145 -4v12c56 7 99 29 99 66c0 11 -6 22 -9 31zM416 319l-90 254l-98 -254h188zM260 812c30 0 53 -23 53 -53s-23 -53 -53 -53s-53 23 -53 53s23 53 53 53zM445 812c30 0 53 -23 53 -53s-23 -53 -53 -53s-53 23 -53 53s23 53 53 53z" />
    <glyph glyph-name="Agrave" unicode="&#xc0;" horiz-adv-x="704" 
d="M427 289h-209l-66 -181c-4 -10 -8 -18 -8 -27c0 -48 64 -68 94 -73v-12c-40 2 -80 4 -121 4c-40 0 -76 -2 -119 -4v12c83 18 103 82 131 150l173 425c4 9 8 17 8 24s-6 22 -12 33c35 6 57 18 87 30l208 -572c19 -52 48 -82 113 -90v-12c-53 2 -105 4 -159 4
c-73 0 -99 -2 -145 -4v12c56 7 99 29 99 66c0 11 -6 22 -9 31zM416 319l-90 254l-98 -254h188zM428 692h-44l-140 96c-16 11 -29 29 -29 44c0 21 15 32 41 32c19 0 34 -17 56 -42z" />
    <glyph glyph-name="Aring" unicode="&#xc5;" horiz-adv-x="704" 
d="M427 289h-209l-66 -181c-4 -10 -8 -18 -8 -27c0 -48 64 -68 94 -73v-12c-40 2 -80 4 -121 4c-40 0 -76 -2 -119 -4v12c83 18 103 82 131 150l173 425c4 9 8 17 8 24s-6 22 -12 33c35 6 57 18 87 30l208 -572c19 -52 48 -82 113 -90v-12c-53 2 -105 4 -159 4
c-73 0 -99 -2 -145 -4v12c56 7 99 29 99 66c0 11 -6 22 -9 31zM416 319l-90 254l-98 -254h188zM251 795c0 57 45 102 102 102s102 -45 102 -102s-45 -102 -102 -102s-102 45 -102 102zM291 795c0 -35 27 -62 62 -62s62 27 62 62s-27 62 -62 62s-62 -27 -62 -62z" />
    <glyph glyph-name="Atilde" unicode="&#xc3;" horiz-adv-x="704" 
d="M427 289h-209l-66 -181c-4 -10 -8 -18 -8 -27c0 -48 64 -68 94 -73v-12c-40 2 -80 4 -121 4c-40 0 -76 -2 -119 -4v12c83 18 103 82 131 150l173 425c4 9 8 17 8 24s-6 22 -12 33c35 6 57 18 87 30l208 -572c19 -52 48 -82 113 -90v-12c-53 2 -105 4 -159 4
c-73 0 -99 -2 -145 -4v12c56 7 99 29 99 66c0 11 -6 22 -9 31zM416 319l-90 254l-98 -254h188zM477 830h31c-14 -55 -36 -113 -102 -113c-23 0 -47 12 -69 24c-23 12 -43 24 -61 24c-26 0 -45 -26 -49 -49h-29c10 57 35 109 100 109c21 0 42 -12 64 -24
c21 -12 43 -24 64 -24c37 0 46 44 51 53z" />
    <glyph glyph-name="Ccedilla" unicode="&#xc7;" horiz-adv-x="704" 
d="M638 426h-14c-36 120 -112 208 -240 208c-164 0 -228 -138 -228 -298s86 -300 252 -300c122 0 211 68 280 175l25 -20c-90 -135 -177 -211 -335 -211c-179 0 -330 142 -330 345s151 345 330 345c99 0 170 -28 242 -30c0 -55 11 -157 18 -214zM282 -202l14 33
c18 -10 40 -15 61 -15c26 0 60 8 60 39c0 26 -14 46 -40 46c-12 0 -27 -2 -37 -8l-13 6l43 101h34l-27 -67c10 2 21 4 32 4c42 0 82 -21 82 -69c0 -68 -64 -88 -121 -88c-31 0 -60 6 -88 18z" />
    <glyph glyph-name="Eacute" unicode="&#xc9;" horiz-adv-x="685" 
d="M230 348v-309c22 -5 74 -13 111 -13c161 0 244 52 340 180l11 -9l-91 -201c-23 2 -47 4 -70 4h-376c-39 0 -77 -2 -116 -4v12c95 8 101 38 101 150v334c0 112 -6 142 -103 150v12c90 -2 157 -4 279 -4c93 0 187 2 282 4c-2 -31 -2 -57 -2 -83c0 -29 4 -58 6 -94l-13 -4
c-34 129 -118 155 -219 155c-47 0 -93 -2 -140 -6v-250c26 0 51 2 77 2c91 0 147 31 159 128h12c0 -48 -2 -96 -2 -143c0 -48 2 -96 2 -144h-12c-23 113 -65 133 -172 133h-64zM296 692l116 130c22 25 37 42 56 42c26 0 41 -11 41 -32c0 -15 -13 -33 -29 -44l-140 -96h-44z
" />
    <glyph glyph-name="Ecircumflex" unicode="&#xca;" horiz-adv-x="685" 
d="M230 348v-309c22 -5 74 -13 111 -13c161 0 244 52 340 180l11 -9l-91 -201c-23 2 -47 4 -70 4h-376c-39 0 -77 -2 -116 -4v12c95 8 101 38 101 150v334c0 112 -6 142 -103 150v12c90 -2 157 -4 279 -4c93 0 187 2 282 4c-2 -31 -2 -57 -2 -83c0 -29 4 -58 6 -94l-13 -4
c-34 129 -118 155 -219 155c-47 0 -93 -2 -140 -6v-250c26 0 51 2 77 2c91 0 147 31 159 128h12c0 -48 -2 -96 -2 -143c0 -48 2 -96 2 -144h-12c-23 113 -65 133 -172 133h-64zM214 692l111 172h69l113 -172h-41l-106 110l-107 -110h-39z" />
    <glyph glyph-name="Edieresis" unicode="&#xcb;" horiz-adv-x="685" 
d="M230 348v-309c22 -5 74 -13 111 -13c161 0 244 52 340 180l11 -9l-91 -201c-23 2 -47 4 -70 4h-376c-39 0 -77 -2 -116 -4v12c95 8 101 38 101 150v334c0 112 -6 142 -103 150v12c90 -2 157 -4 279 -4c93 0 187 2 282 4c-2 -31 -2 -57 -2 -83c0 -29 4 -58 6 -94l-13 -4
c-34 129 -118 155 -219 155c-47 0 -93 -2 -140 -6v-250c26 0 51 2 77 2c91 0 147 31 159 128h12c0 -48 -2 -96 -2 -143c0 -48 2 -96 2 -144h-12c-23 113 -65 133 -172 133h-64zM267 812c30 0 53 -23 53 -53s-23 -53 -53 -53s-53 23 -53 53s23 53 53 53zM452 812
c30 0 53 -23 53 -53s-23 -53 -53 -53s-53 23 -53 53s23 53 53 53z" />
    <glyph glyph-name="Egrave" unicode="&#xc8;" horiz-adv-x="685" 
d="M230 348v-309c22 -5 74 -13 111 -13c161 0 244 52 340 180l11 -9l-91 -201c-23 2 -47 4 -70 4h-376c-39 0 -77 -2 -116 -4v12c95 8 101 38 101 150v334c0 112 -6 142 -103 150v12c90 -2 157 -4 279 -4c93 0 187 2 282 4c-2 -31 -2 -57 -2 -83c0 -29 4 -58 6 -94l-13 -4
c-34 129 -118 155 -219 155c-47 0 -93 -2 -140 -6v-250c26 0 51 2 77 2c91 0 147 31 159 128h12c0 -48 -2 -96 -2 -143c0 -48 2 -96 2 -144h-12c-23 113 -65 133 -172 133h-64zM435 692h-44l-140 96c-16 11 -29 29 -29 44c0 21 15 32 41 32c19 0 34 -17 56 -42z" />
    <glyph glyph-name="Eth" unicode="&#xd0;" horiz-adv-x="833" 
d="M40 370h98v176c0 58 -7 88 -99 96v12c35 -2 69 -4 104 -4c94 0 168 14 253 14c215 0 392 -138 392 -357c0 -221 -173 -309 -359 -309c-142 0 -199 2 -256 2c-45 0 -89 -2 -134 -4v12c88 8 99 44 99 76v254h-98v32zM228 370h204v-32h-204v-262c43 -40 102 -54 157 -54
c205 0 295 108 295 308c0 174 -132 310 -313 310c-48 0 -91 -10 -133 -28c-5 -69 -6 -139 -6 -209v-33z" />
    <glyph glyph-name="Iacute" unicode="&#xcd;" horiz-adv-x="389" 
d="M47 -4v12c95 8 102 38 102 150v334c0 112 -7 142 -104 150v12c54 -2 109 -4 163 -4c44 0 88 2 131 4v-12c-93 -8 -100 -38 -100 -150v-334c0 -112 7 -142 105 -150v-12c-51 2 -101 4 -152 4c-49 0 -97 -2 -145 -4zM131 692l116 130c22 25 37 42 56 42c26 0 41 -11 41 -32
c0 -15 -13 -33 -29 -44l-140 -96h-44z" />
    <glyph glyph-name="Icircumflex" unicode="&#xce;" horiz-adv-x="389" 
d="M47 -4v12c95 8 102 38 102 150v334c0 112 -7 142 -104 150v12c54 -2 109 -4 163 -4c44 0 88 2 131 4v-12c-93 -8 -100 -38 -100 -150v-334c0 -112 7 -142 105 -150v-12c-51 2 -101 4 -152 4c-49 0 -97 -2 -145 -4zM49 692l111 172h69l113 -172h-41l-106 110l-107 -110
h-39z" />
    <glyph glyph-name="Idieresis" unicode="&#xcf;" horiz-adv-x="389" 
d="M47 -4v12c95 8 102 38 102 150v334c0 112 -7 142 -104 150v12c54 -2 109 -4 163 -4c44 0 88 2 131 4v-12c-93 -8 -100 -38 -100 -150v-334c0 -112 7 -142 105 -150v-12c-51 2 -101 4 -152 4c-49 0 -97 -2 -145 -4zM102 812c30 0 53 -23 53 -53s-23 -53 -53 -53
s-53 23 -53 53s23 53 53 53zM287 812c30 0 53 -23 53 -53s-23 -53 -53 -53s-53 23 -53 53s23 53 53 53z" />
    <glyph glyph-name="Igrave" unicode="&#xcc;" horiz-adv-x="389" 
d="M47 -4v12c95 8 102 38 102 150v334c0 112 -7 142 -104 150v12c54 -2 109 -4 163 -4c44 0 88 2 131 4v-12c-93 -8 -100 -38 -100 -150v-334c0 -112 7 -142 105 -150v-12c-51 2 -101 4 -152 4c-49 0 -97 -2 -145 -4zM270 692h-44l-140 96c-16 11 -29 29 -29 44
c0 21 15 32 41 32c19 0 34 -17 56 -42z" />
    <glyph glyph-name="Ntilde" unicode="&#xd1;" horiz-adv-x="815" 
d="M16 642v12c47 -2 84 -4 140 -4c29 0 57 2 86 4c53 -71 328 -396 409 -507h2c0 40 1 79 1 119v116c0 171 -18 251 -125 260v12c47 -2 94 -4 141 -4c43 0 87 2 130 4v-12c-84 -12 -110 -43 -110 -124v-530h-37c-146 230 -337 438 -457 568c-1 -34 -2 -68 -2 -102v-175
c0 -236 10 -258 134 -271v-12c-66 2 -132 4 -198 4c-38 0 -76 -2 -114 -4v12c92 12 134 17 136 109l12 459c-43 35 -95 53 -148 66zM538 830h31c-14 -55 -36 -113 -102 -113c-23 0 -47 12 -69 24c-23 12 -43 24 -61 24c-26 0 -45 -26 -49 -49h-29c10 57 35 109 100 109
c21 0 42 -12 64 -24c21 -12 43 -24 64 -24c37 0 46 44 51 53z" />
    <glyph glyph-name="Oacute" unicode="&#xd3;" horiz-adv-x="833" 
d="M47 325c0 215 167 345 370 345s370 -130 370 -345s-167 -345 -370 -345s-370 130 -370 345zM153 325c0 -163 98 -309 264 -309s264 146 264 309s-98 309 -264 309s-264 -146 -264 -309zM353 692l116 130c22 25 37 42 56 42c26 0 41 -11 41 -32c0 -15 -13 -33 -29 -44
l-140 -96h-44z" />
    <glyph glyph-name="Ocircumflex" unicode="&#xd4;" horiz-adv-x="833" 
d="M47 325c0 215 167 345 370 345s370 -130 370 -345s-167 -345 -370 -345s-370 130 -370 345zM153 325c0 -163 98 -309 264 -309s264 146 264 309s-98 309 -264 309s-264 -146 -264 -309zM271 692l111 172h69l113 -172h-41l-106 110l-107 -110h-39z" />
    <glyph glyph-name="Odieresis" unicode="&#xd6;" horiz-adv-x="833" 
d="M47 325c0 215 167 345 370 345s370 -130 370 -345s-167 -345 -370 -345s-370 130 -370 345zM153 325c0 -163 98 -309 264 -309s264 146 264 309s-98 309 -264 309s-264 -146 -264 -309zM324 812c30 0 53 -23 53 -53s-23 -53 -53 -53s-53 23 -53 53s23 53 53 53zM509 812
c30 0 53 -23 53 -53s-23 -53 -53 -53s-53 23 -53 53s23 53 53 53z" />
    <glyph glyph-name="Ograve" unicode="&#xd2;" horiz-adv-x="833" 
d="M47 325c0 215 167 345 370 345s370 -130 370 -345s-167 -345 -370 -345s-370 130 -370 345zM153 325c0 -163 98 -309 264 -309s264 146 264 309s-98 309 -264 309s-264 -146 -264 -309zM492 692h-44l-140 96c-16 11 -29 29 -29 44c0 21 15 32 41 32c19 0 34 -17 56 -42z
" />
    <glyph glyph-name="Otilde" unicode="&#xd5;" horiz-adv-x="833" 
d="M47 325c0 215 167 345 370 345s370 -130 370 -345s-167 -345 -370 -345s-370 130 -370 345zM153 325c0 -163 98 -309 264 -309s264 146 264 309s-98 309 -264 309s-264 -146 -264 -309zM541 830h31c-14 -55 -36 -113 -102 -113c-23 0 -47 12 -69 24c-23 12 -43 24 -61 24
c-26 0 -45 -26 -49 -49h-29c10 57 35 109 100 109c21 0 42 -12 64 -24c21 -12 43 -24 64 -24c37 0 46 44 51 53z" />
    <glyph glyph-name="Scaron" unicode="&#x160;" horiz-adv-x="593" 
d="M505 464h-14c-35 86 -111 174 -213 174c-76 0 -130 -24 -130 -96c0 -172 389 -131 389 -374c0 -130 -102 -188 -224 -188c-66 0 -151 29 -182 29c-15 0 -28 -6 -42 -11c-12 76 -29 149 -46 223l13 7c49 -92 135 -216 255 -216c78 0 148 32 148 119
c0 191 -389 159 -389 367c0 105 87 172 186 172c49 0 87 -8 124 -16c38 -8 74 -17 117 -17c0 -58 1 -116 8 -173zM444 864l-113 -172h-69l-111 172h39l107 -114l106 114h41z" />
    <glyph glyph-name="Thorn" unicode="&#xde;" horiz-adv-x="630" 
d="M343 8v-12c-51 2 -101 4 -152 4c-49 0 -97 -2 -145 -4v12c95 8 102 38 102 150v334c0 112 -7 142 -104 150v12c54 -2 109 -4 163 -4c44 0 88 2 131 4v-12c-78 -7 -100 -29 -100 -105c35 2 79 7 122 7c100 0 229 -74 229 -197c0 -128 -129 -173 -232 -173
c-32 0 -66 2 -119 16v-32c0 -112 7 -142 105 -150zM238 503v-277c31 -16 64 -20 96 -20c84 0 155 51 155 139c0 105 -69 171 -166 171c-22 0 -55 -2 -85 -13z" />
    <glyph glyph-name="Uacute" unicode="&#xda;" horiz-adv-x="796" 
d="M128 198v355c0 74 -30 78 -86 89v12c55 -2 110 -4 165 -4c40 0 79 2 119 4v-12c-86 -7 -108 -34 -108 -114v-326c0 -124 89 -172 196 -172c170 0 212 115 212 180v280c0 107 -16 142 -96 152v12c41 -2 82 -4 123 -4c34 0 68 2 102 4v-12c-57 -8 -93 -18 -93 -130v-299
c0 -159 -122 -233 -272 -233c-135 0 -262 73 -262 218zM352 692l116 130c22 25 37 42 56 42c26 0 41 -11 41 -32c0 -15 -13 -33 -29 -44l-140 -96h-44z" />
    <glyph glyph-name="Ucircumflex" unicode="&#xdb;" horiz-adv-x="796" 
d="M128 198v355c0 74 -30 78 -86 89v12c55 -2 110 -4 165 -4c40 0 79 2 119 4v-12c-86 -7 -108 -34 -108 -114v-326c0 -124 89 -172 196 -172c170 0 212 115 212 180v280c0 107 -16 142 -96 152v12c41 -2 82 -4 123 -4c34 0 68 2 102 4v-12c-57 -8 -93 -18 -93 -130v-299
c0 -159 -122 -233 -272 -233c-135 0 -262 73 -262 218zM270 692l111 172h69l113 -172h-41l-106 110l-107 -110h-39z" />
    <glyph glyph-name="Udieresis" unicode="&#xdc;" horiz-adv-x="796" 
d="M128 198v355c0 74 -30 78 -86 89v12c55 -2 110 -4 165 -4c40 0 79 2 119 4v-12c-86 -7 -108 -34 -108 -114v-326c0 -124 89 -172 196 -172c170 0 212 115 212 180v280c0 107 -16 142 -96 152v12c41 -2 82 -4 123 -4c34 0 68 2 102 4v-12c-57 -8 -93 -18 -93 -130v-299
c0 -159 -122 -233 -272 -233c-135 0 -262 73 -262 218zM323 812c30 0 53 -23 53 -53s-23 -53 -53 -53s-53 23 -53 53s23 53 53 53zM508 812c30 0 53 -23 53 -53s-23 -53 -53 -53s-53 23 -53 53s23 53 53 53z" />
    <glyph glyph-name="Ugrave" unicode="&#xd9;" horiz-adv-x="796" 
d="M128 198v355c0 74 -30 78 -86 89v12c55 -2 110 -4 165 -4c40 0 79 2 119 4v-12c-86 -7 -108 -34 -108 -114v-326c0 -124 89 -172 196 -172c170 0 212 115 212 180v280c0 107 -16 142 -96 152v12c41 -2 82 -4 123 -4c34 0 68 2 102 4v-12c-57 -8 -93 -18 -93 -130v-299
c0 -159 -122 -233 -272 -233c-135 0 -262 73 -262 218zM491 692h-44l-140 96c-16 11 -29 29 -29 44c0 21 15 32 41 32c19 0 34 -17 56 -42z" />
    <glyph glyph-name="Yacute" unicode="&#xdd;" horiz-adv-x="722" 
d="M-20 642v12c55 -2 109 -4 164 -4c52 0 105 2 157 4v-12c-33 -6 -82 -20 -82 -62c0 -14 15 -39 41 -74l142 -192l118 185c18 28 26 55 26 77c0 38 -38 64 -78 66v12c47 -2 94 -4 141 -4c42 0 85 2 127 4v-12c-95 -19 -148 -108 -187 -164l-137 -200v-147
c0 -97 28 -116 120 -123v-12c-59 2 -118 4 -178 4c-49 0 -99 -2 -148 -4v12c88 7 116 26 116 123v157l-181 232c-37 48 -76 102 -161 122zM298 692l116 130c22 25 37 42 56 42c26 0 41 -11 41 -32c0 -15 -13 -33 -29 -44l-140 -96h-44z" />
    <glyph glyph-name="Ydieresis" unicode="&#x178;" horiz-adv-x="722" 
d="M-20 642v12c55 -2 109 -4 164 -4c52 0 105 2 157 4v-12c-33 -6 -82 -20 -82 -62c0 -14 15 -39 41 -74l142 -192l118 185c18 28 26 55 26 77c0 38 -38 64 -78 66v12c47 -2 94 -4 141 -4c42 0 85 2 127 4v-12c-95 -19 -148 -108 -187 -164l-137 -200v-147
c0 -97 28 -116 120 -123v-12c-59 2 -118 4 -178 4c-49 0 -99 -2 -148 -4v12c88 7 116 26 116 123v157l-181 232c-37 48 -76 102 -161 122zM269 812c30 0 53 -23 53 -53s-23 -53 -53 -53s-53 23 -53 53s23 53 53 53zM454 812c30 0 53 -23 53 -53s-23 -53 -53 -53
s-53 23 -53 53s23 53 53 53z" />
    <glyph glyph-name="Zcaron" unicode="&#x17d;" horiz-adv-x="704" 
d="M652 654l7 -12c-168 -196 -357 -440 -485 -610c20 -5 54 -6 112 -6c156 0 298 36 355 194h20l-76 -224c-117 2 -234 4 -351 4c-61 0 -122 -2 -183 -4l-8 12l487 616h-134c-117 0 -244 -35 -267 -168h-14c-1 24 2 48 2 71c0 42 4 86 11 127c85 -2 187 -4 255 -4
c90 0 179 2 269 4zM500 864l-113 -172h-69l-111 172h39l107 -114l106 114h41z" />
    <glyph glyph-name="aacute" unicode="&#xe1;" horiz-adv-x="463" 
d="M136 277l-82 15c20 83 77 92 150 92c70 0 143 -28 143 -111v-185c0 -25 13 -48 41 -48c26 0 46 19 65 34l10 -11c-28 -26 -72 -79 -113 -79c-28 0 -59 40 -78 58c-42 -29 -99 -58 -150 -58c-57 0 -108 39 -108 99c0 110 133 124 259 126v76c0 49 -34 77 -81 77
c-34 0 -56 -41 -56 -85zM271 69v101c-22 6 -44 9 -67 9c-52 0 -106 -23 -106 -82c0 -45 37 -63 76 -63c42 0 81 23 97 35zM145 433l116 130c22 25 37 42 56 42c26 0 41 -11 41 -32c0 -15 -13 -33 -29 -44l-140 -96h-44z" />
    <glyph glyph-name="acircumflex" unicode="&#xe2;" horiz-adv-x="463" 
d="M136 277l-82 15c20 83 77 92 150 92c70 0 143 -28 143 -111v-185c0 -25 13 -48 41 -48c26 0 46 19 65 34l10 -11c-28 -26 -72 -79 -113 -79c-28 0 -59 40 -78 58c-42 -29 -99 -58 -150 -58c-57 0 -108 39 -108 99c0 110 133 124 259 126v76c0 49 -34 77 -81 77
c-34 0 -56 -41 -56 -85zM271 69v101c-22 6 -44 9 -67 9c-52 0 -106 -23 -106 -82c0 -45 37 -63 76 -63c42 0 81 23 97 35zM63 433l111 172h69l113 -172h-41l-106 110l-107 -110h-39z" />
    <glyph glyph-name="adieresis" unicode="&#xe4;" horiz-adv-x="463" 
d="M136 277l-82 15c20 83 77 92 150 92c70 0 143 -28 143 -111v-185c0 -25 13 -48 41 -48c26 0 46 19 65 34l10 -11c-28 -26 -72 -79 -113 -79c-28 0 -59 40 -78 58c-42 -29 -99 -58 -150 -58c-57 0 -108 39 -108 99c0 110 133 124 259 126v76c0 49 -34 77 -81 77
c-34 0 -56 -41 -56 -85zM271 69v101c-22 6 -44 9 -67 9c-52 0 -106 -23 -106 -82c0 -45 37 -63 76 -63c42 0 81 23 97 35zM116 553c30 0 53 -23 53 -53s-23 -53 -53 -53s-53 23 -53 53s23 53 53 53zM301 553c30 0 53 -23 53 -53s-23 -53 -53 -53s-53 23 -53 53s23 53 53 53z
" />
    <glyph glyph-name="agrave" unicode="&#xe0;" horiz-adv-x="463" 
d="M136 277l-82 15c20 83 77 92 150 92c70 0 143 -28 143 -111v-185c0 -25 13 -48 41 -48c26 0 46 19 65 34l10 -11c-28 -26 -72 -79 -113 -79c-28 0 -59 40 -78 58c-42 -29 -99 -58 -150 -58c-57 0 -108 39 -108 99c0 110 133 124 259 126v76c0 49 -34 77 -81 77
c-34 0 -56 -41 -56 -85zM271 69v101c-22 6 -44 9 -67 9c-52 0 -106 -23 -106 -82c0 -45 37 -63 76 -63c42 0 81 23 97 35zM284 433h-44l-140 96c-16 11 -29 29 -29 44c0 21 15 32 41 32c19 0 34 -17 56 -42z" />
    <glyph glyph-name="aring" unicode="&#xe5;" horiz-adv-x="463" 
d="M136 277l-82 15c20 83 77 92 150 92c70 0 143 -28 143 -111v-185c0 -25 13 -48 41 -48c26 0 46 19 65 34l10 -11c-28 -26 -72 -79 -113 -79c-28 0 -59 40 -78 58c-42 -29 -99 -58 -150 -58c-57 0 -108 39 -108 99c0 110 133 124 259 126v76c0 49 -34 77 -81 77
c-34 0 -56 -41 -56 -85zM271 69v101c-22 6 -44 9 -67 9c-52 0 -106 -23 -106 -82c0 -45 37 -63 76 -63c42 0 81 23 97 35zM107 536c0 57 45 102 102 102s102 -45 102 -102s-45 -102 -102 -102s-102 45 -102 102zM147 536c0 -35 27 -62 62 -62s62 27 62 62s-27 62 -62 62
s-62 -27 -62 -62z" />
    <glyph glyph-name="atilde" unicode="&#xe3;" horiz-adv-x="463" 
d="M136 277l-82 15c20 83 77 92 150 92c70 0 143 -28 143 -111v-185c0 -25 13 -48 41 -48c26 0 46 19 65 34l10 -11c-28 -26 -72 -79 -113 -79c-28 0 -59 40 -78 58c-42 -29 -99 -58 -150 -58c-57 0 -108 39 -108 99c0 110 133 124 259 126v76c0 49 -34 77 -81 77
c-34 0 -56 -41 -56 -85zM271 69v101c-22 6 -44 9 -67 9c-52 0 -106 -23 -106 -82c0 -45 37 -63 76 -63c42 0 81 23 97 35zM333 571h31c-14 -55 -36 -113 -102 -113c-23 0 -47 12 -69 24c-23 12 -43 24 -61 24c-26 0 -45 -26 -49 -49h-29c10 57 35 109 100 109
c21 0 42 -12 64 -24c21 -12 43 -24 64 -24c37 0 46 44 51 53z" />
    <glyph glyph-name="brokenbar" unicode="&#xa6;" horiz-adv-x="222" 
d="M86 0v275h50v-275h-50zM86 437v275h50v-275h-50z" />
    <glyph glyph-name="ccedilla" unicode="&#xe7;" horiz-adv-x="444" 
d="M380 216h-12c-28 67 -64 142 -148 142c-83 0 -115 -87 -115 -165c0 -88 61 -167 154 -167c49 0 93 20 133 48l14 -16c-60 -49 -114 -74 -186 -74c-104 0 -195 90 -195 200s91 200 195 200c55 0 100 -7 147 -16zM118 -202l14 33c18 -10 40 -15 61 -15c26 0 60 8 60 39
c0 26 -14 46 -40 46c-12 0 -27 -2 -37 -8l-13 6l43 101h34l-27 -67c10 2 21 4 32 4c42 0 82 -21 82 -69c0 -68 -64 -88 -121 -88c-31 0 -60 6 -88 18z" />
    <glyph glyph-name="copyright" unicode="&#xa9;" horiz-adv-x="800" 
d="M400 -20c-188 0 -337 153 -337 344c0 192 149 346 337 346c189 0 337 -154 337 -346c0 -191 -148 -344 -337 -344zM400 22c156 0 283 142 283 302c0 162 -126 304 -283 304c-156 0 -283 -143 -283 -304c0 -160 128 -302 283 -302zM551 241h16l-15 -69
c-1 -12 -11 -15 -27 -20c-19 -6 -58 -17 -105 -17c-115 0 -209 58 -209 199c0 82 64 192 216 192c51 0 76 -9 103 -18c15 -5 22 -12 22 -21v-70h-18c-4 42 -32 89 -110 89c-94 0 -140 -71 -141 -169c-1 -104 45 -182 147 -182c66 0 102 40 121 86z" />
    <glyph glyph-name="degree" unicode="&#xb0;" horiz-adv-x="400" 
d="M200 424c53 0 93 46 93 99s-40 99 -93 99s-93 -46 -93 -99s40 -99 93 -99zM200 380c-80 0 -143 63 -143 143s63 143 143 143s143 -63 143 -143s-63 -143 -143 -143z" />
    <glyph glyph-name="divide" unicode="&#xf7;" 
d="M433 209v-50h-366v50h366zM202 337c0 25 23 47 48 47c24 0 47 -22 47 -47s-23 -48 -47 -48c-25 0 -48 23 -48 48zM202 32c0 25 23 47 48 47c24 0 47 -22 47 -47s-23 -48 -47 -48c-25 0 -48 23 -48 48z" />
    <glyph glyph-name="eacute" unicode="&#xe9;" horiz-adv-x="444" 
d="M394 210h-290c0 -138 82 -176 135 -176c55 0 100 17 139 56l17 -16c-54 -58 -107 -90 -187 -90c-115 0 -184 98 -184 200s69 200 184 200c105 0 171 -59 186 -174zM106 240h193c-7 73 -24 114 -99 114c-57 0 -94 -61 -94 -114zM159 433l116 130c22 25 37 42 56 42
c26 0 41 -11 41 -32c0 -15 -13 -33 -29 -44l-140 -96h-44z" />
    <glyph glyph-name="ecircumflex" unicode="&#xea;" horiz-adv-x="444" 
d="M394 210h-290c0 -138 82 -176 135 -176c55 0 100 17 139 56l17 -16c-54 -58 -107 -90 -187 -90c-115 0 -184 98 -184 200s69 200 184 200c105 0 171 -59 186 -174zM106 240h193c-7 73 -24 114 -99 114c-57 0 -94 -61 -94 -114zM77 433l111 172h69l113 -172h-41l-106 110
l-107 -110h-39z" />
    <glyph glyph-name="edieresis" unicode="&#xeb;" horiz-adv-x="444" 
d="M394 210h-290c0 -138 82 -176 135 -176c55 0 100 17 139 56l17 -16c-54 -58 -107 -90 -187 -90c-115 0 -184 98 -184 200s69 200 184 200c105 0 171 -59 186 -174zM106 240h193c-7 73 -24 114 -99 114c-57 0 -94 -61 -94 -114zM130 553c30 0 53 -23 53 -53
s-23 -53 -53 -53s-53 23 -53 53s23 53 53 53zM315 553c30 0 53 -23 53 -53s-23 -53 -53 -53s-53 23 -53 53s23 53 53 53z" />
    <glyph glyph-name="egrave" unicode="&#xe8;" horiz-adv-x="444" 
d="M394 210h-290c0 -138 82 -176 135 -176c55 0 100 17 139 56l17 -16c-54 -58 -107 -90 -187 -90c-115 0 -184 98 -184 200s69 200 184 200c105 0 171 -59 186 -174zM106 240h193c-7 73 -24 114 -99 114c-57 0 -94 -61 -94 -114zM298 433h-44l-140 96c-16 11 -29 29 -29 44
c0 21 15 32 41 32c19 0 34 -17 56 -42z" />
    <glyph glyph-name="eth" unicode="&#xf0;" 
d="M221 354c-75 0 -109 -82 -109 -158c0 -84 46 -182 145 -182c75 0 109 82 109 158c0 84 -47 182 -145 182zM94 696l18 16c42 -33 94 -75 144 -125l123 61l16 -29l-115 -57c93 -97 174 -221 174 -362c0 -136 -87 -216 -215 -216s-215 80 -215 200s87 200 215 200
c19 0 37 -2 77 -12c-10 50 -42 111 -82 167l-112 -56l-16 28l109 55c-40 54 -78 93 -121 130z" />
    <glyph glyph-name="iacute" unicode="&#xed;" horiz-adv-x="259" 
d="M81 84v165c0 64 -4 97 -74 105v14l152 10v-294c0 -65 20 -74 79 -76v-12c-47 2 -94 4 -141 4c-30 0 -60 -2 -90 -4v12c54 2 74 11 74 76zM49 433l116 130c22 25 37 42 56 42c26 0 41 -11 41 -32c0 -15 -13 -33 -29 -44l-140 -96h-44z" />
    <glyph glyph-name="icircumflex" unicode="&#xee;" horiz-adv-x="259" 
d="M81 84v165c0 64 -4 97 -74 105v14l152 10v-294c0 -65 20 -74 79 -76v-12c-47 2 -94 4 -141 4c-30 0 -60 -2 -90 -4v12c54 2 74 11 74 76zM-33 433l111 172h69l113 -172h-41l-106 110l-107 -110h-39z" />
    <glyph glyph-name="idieresis" unicode="&#xef;" horiz-adv-x="259" 
d="M81 84v165c0 64 -4 97 -74 105v14l152 10v-294c0 -65 20 -74 79 -76v-12c-47 2 -94 4 -141 4c-30 0 -60 -2 -90 -4v12c54 2 74 11 74 76zM20 553c30 0 53 -23 53 -53s-23 -53 -53 -53s-53 23 -53 53s23 53 53 53zM205 553c30 0 53 -23 53 -53s-23 -53 -53 -53
s-53 23 -53 53s23 53 53 53z" />
    <glyph glyph-name="igrave" unicode="&#xec;" horiz-adv-x="259" 
d="M81 84v165c0 64 -4 97 -74 105v14l152 10v-294c0 -65 20 -74 79 -76v-12c-47 2 -94 4 -141 4c-30 0 -60 -2 -90 -4v12c54 2 74 11 74 76zM188 433h-44l-140 96c-16 11 -29 29 -29 44c0 21 15 32 41 32c19 0 34 -17 56 -42z" />
    <glyph glyph-name="logicalnot" unicode="&#xac;" 
d="M383 79v151h-316v50h366v-201h-50z" />
    <glyph glyph-name="minus" unicode="&#x2212;" 
d="M433 159h-366v50h366v-50z" />
    <glyph glyph-name="mu" unicode="&#xb5;" horiz-adv-x="537" 
d="M156 -11v-232c-51 -2 -101 -5 -152 -7v12c67 12 74 20 74 102v437c0 40 -21 51 -75 57v13l153 7v-256c0 -54 31 -88 85 -88c43 0 90 25 110 48v211c0 34 -6 59 -79 69v11l157 5v-301c0 -51 27 -62 74 -65v-10c-51 -3 -103 -4 -152 -6v52c-47 -35 -98 -64 -157 -64
c-14 0 -27 2 -38 5z" />
    <glyph glyph-name="multiply" unicode="&#xd7;" 
d="M249 219l148 149l36 -35l-149 -149l149 -149l-35 -35l-149 149l-147 -149l-35 36l146 148l-146 148l35 36z" />
    <glyph glyph-name="ntilde" unicode="&#xf1;" horiz-adv-x="537" 
d="M14 344v12l146 22v-53c36 28 86 59 129 59c74 0 143 -33 143 -140v-176c0 -44 25 -52 70 -60v-12c-39 2 -84 4 -129 4c-30 0 -59 -2 -86 -4v12c42 8 67 16 67 60v161c0 68 -29 107 -91 107c-45 0 -103 -31 -103 -56v-212c0 -44 25 -52 76 -60v-12c-45 2 -90 4 -135 4
c-30 0 -59 -2 -89 -4v12c45 8 70 16 70 60v232c0 40 -32 44 -68 44zM387 571h31c-14 -55 -36 -113 -102 -113c-23 0 -47 12 -69 24c-23 12 -43 24 -61 24c-26 0 -45 -26 -49 -49h-29c10 57 35 109 100 109c21 0 42 -12 64 -24c21 -12 43 -24 64 -24c37 0 46 44 51 53z" />
    <glyph glyph-name="oacute" unicode="&#xf3;" 
d="M239 384c128 0 215 -80 215 -200s-87 -200 -215 -200s-215 80 -215 200s87 200 215 200zM221 354c-75 0 -109 -82 -109 -158c0 -84 46 -182 145 -182c75 0 109 82 109 158c0 84 -47 182 -145 182zM181 433l116 130c22 25 37 42 56 42c26 0 41 -11 41 -32
c0 -15 -13 -33 -29 -44l-140 -96h-44z" />
    <glyph glyph-name="ocircumflex" unicode="&#xf4;" 
d="M239 384c128 0 215 -80 215 -200s-87 -200 -215 -200s-215 80 -215 200s87 200 215 200zM221 354c-75 0 -109 -82 -109 -158c0 -84 46 -182 145 -182c75 0 109 82 109 158c0 84 -47 182 -145 182zM99 433l111 172h69l113 -172h-41l-106 110l-107 -110h-39z" />
    <glyph glyph-name="odieresis" unicode="&#xf6;" 
d="M239 384c128 0 215 -80 215 -200s-87 -200 -215 -200s-215 80 -215 200s87 200 215 200zM221 354c-75 0 -109 -82 -109 -158c0 -84 46 -182 145 -182c75 0 109 82 109 158c0 84 -47 182 -145 182zM152 553c30 0 53 -23 53 -53s-23 -53 -53 -53s-53 23 -53 53s23 53 53 53
zM337 553c30 0 53 -23 53 -53s-23 -53 -53 -53s-53 23 -53 53s23 53 53 53z" />
    <glyph glyph-name="ograve" unicode="&#xf2;" 
d="M239 384c128 0 215 -80 215 -200s-87 -200 -215 -200s-215 80 -215 200s87 200 215 200zM221 354c-75 0 -109 -82 -109 -158c0 -84 46 -182 145 -182c75 0 109 82 109 158c0 84 -47 182 -145 182zM320 433h-44l-140 96c-16 11 -29 29 -29 44c0 21 15 32 41 32
c19 0 34 -17 56 -42z" />
    <glyph glyph-name="onehalf" unicode="&#xbd;" horiz-adv-x="750" 
d="M44 264v16c50 6 66 13 66 53v226c0 52 -1 62 -63 67v16c34 1 75 8 105 24h20v-333c0 -40 11 -46 63 -53v-16c-34 1 -67 2 -101 2c-30 0 -60 -1 -90 -2zM628 666l-453 -682h-48l449 682h52zM459 -2l-7 9l98 93c55 52 108 117 108 184c0 39 -21 89 -68 89
c-34 0 -67 -13 -67 -53c0 -16 21 -23 21 -48c0 -17 -14 -26 -31 -29c-31 0 -42 26 -42 48c0 64 52 106 117 106c83 3 134 -41 134 -117c0 -92 -139 -179 -199 -236h108c52 0 61 3 91 43l12 -6l-45 -83c-33 1 -66 2 -99 2c-43 0 -87 -1 -131 -2z" />
    <glyph glyph-name="onequarter" unicode="&#xbc;" horiz-adv-x="750" 
d="M74 264v16c50 6 66 13 66 53v226c0 52 -1 62 -63 67v16c34 1 75 8 105 24h20v-333c0 -40 11 -46 63 -53v-16c-34 1 -67 2 -101 2c-30 0 -60 -1 -90 -2zM658 666l-453 -682h-48l449 682h52zM702 414l-243 -255h141v106l56 51v-316h-56v115h-217v16l268 283h51z" />
    <glyph glyph-name="onesuperior" unicode="&#xb9;" horiz-adv-x="300" 
d="M54 264v16c50 6 66 13 66 53v226c0 52 -1 62 -63 67v16c34 1 75 8 105 24h20v-333c0 -40 11 -46 63 -53v-16c-34 1 -67 2 -101 2c-30 0 -60 -1 -90 -2z" />
    <glyph glyph-name="otilde" unicode="&#xf5;" 
d="M239 384c128 0 215 -80 215 -200s-87 -200 -215 -200s-215 80 -215 200s87 200 215 200zM221 354c-75 0 -109 -82 -109 -158c0 -84 46 -182 145 -182c75 0 109 82 109 158c0 84 -47 182 -145 182zM369 571h31c-14 -55 -36 -113 -102 -113c-23 0 -47 12 -69 24
c-23 12 -43 24 -61 24c-26 0 -45 -26 -49 -49h-29c10 57 35 109 100 109c21 0 42 -12 64 -24c21 -12 43 -24 64 -24c37 0 46 44 51 53z" />
    <glyph glyph-name="plusminus" unicode="&#xb1;" 
d="M225 257v111h50v-111h158v-50h-158v-112h-50v112h-158v50h158zM67 0v50h366v-50h-366z" />
    <glyph glyph-name="registered" unicode="&#xae;" horiz-adv-x="800" 
d="M239 498v17h177c59 0 116 -29 116 -92c0 -51 -35 -89 -81 -105l58 -79c26 -36 57 -70 76 -85v-8h-64c-32 0 -57 68 -121 162h-48v-97c0 -44 -2 -44 49 -49v-16h-162v16c49 5 49 5 49 49v239c0 45 0 44 -49 48zM352 495v-167h43c49 0 69 37 69 90c0 58 -32 77 -71 77h-41z
M400 -20c-188 0 -337 153 -337 344c0 192 149 346 337 346c189 0 337 -154 337 -346c0 -191 -148 -344 -337 -344zM400 22c156 0 283 142 283 302c0 162 -126 304 -283 304c-156 0 -283 -143 -283 -304c0 -160 128 -302 283 -302z" />
    <glyph glyph-name="scaron" unicode="&#x161;" horiz-adv-x="389" 
d="M37 11l-8 116h14c37 -55 95 -113 166 -113c35 0 76 13 76 52c0 100 -247 75 -247 206c0 71 50 112 118 112c51 0 97 -20 147 -22l6 -106h-13c-28 50 -81 98 -141 98c-33 0 -65 -13 -65 -51c0 -83 247 -69 247 -202c0 -92 -66 -117 -146 -117c-62 0 -120 23 -154 27z
M342 605l-113 -172h-69l-111 172h39l107 -114l106 114h41z" />
    <glyph glyph-name="thorn" unicode="&#xfe;" horiz-adv-x="537" 
d="M152 287v-198c14 -40 66 -75 124 -75c83 0 122 70 122 166c0 80 -39 168 -122 168c-58 0 -110 -25 -124 -61zM152 16v-167c0 -63 9 -77 123 -81v-12c-49 2 -99 4 -148 4c-45 0 -90 -2 -135 -4v12c55 6 82 14 82 74v770c0 52 -9 70 -69 70v12l147 18v-376
c48 35 84 48 143 48c118 0 191 -84 191 -202c0 -122 -100 -198 -216 -198c-41 0 -82 10 -118 32z" />
    <glyph glyph-name="threequarters" unicode="&#xbe;" horiz-adv-x="750" 
d="M658 666l-453 -682h-48l449 682h52zM702 414l-243 -255h141v106l56 51v-316h-56v115h-217v16l268 283h51zM254 615h-110c-33 0 -42 -27 -54 -48h-22l35 96c36 -1 71 -2 107 -2c30 0 90 1 119 2l7 -8l-157 -156l1 1l2 -2c9 2 22 5 35 5c54 0 103 -39 103 -116
c0 -67 -55 -126 -155 -126c-54 0 -123 23 -123 80c0 19 12 35 37 35c28 0 34 -17 34 -37c0 -7 -3 -15 -3 -22c0 -25 42 -28 65 -28c64 0 79 50 79 104c0 38 -21 82 -64 82c-28 0 -40 -8 -60 -22l-22 13z" />
    <glyph glyph-name="threesuperior" unicode="&#xb3;" horiz-adv-x="300" 
d="M218 611h-110c-33 0 -42 -27 -54 -48h-22l35 96c36 -1 71 -2 107 -2c30 0 90 1 119 2l7 -8l-157 -156l1 1l2 -2c9 2 22 5 35 5c54 0 103 -39 103 -116c0 -67 -55 -126 -155 -126c-54 0 -123 23 -123 80c0 19 12 35 37 35c28 0 34 -17 34 -37c0 -7 -3 -15 -3 -22
c0 -25 42 -28 65 -28c64 0 79 50 79 104c0 38 -21 82 -64 82c-28 0 -40 -8 -60 -22l-22 13z" />
    <glyph glyph-name="trademark" unicode="&#x2122;" horiz-adv-x="990" 
d="M231 630v-308c0 -51 -2 -50 50 -56v-20h-164v20c51 6 50 5 50 56v308h-52c-42 0 -59 -31 -68 -68h-18v88h340v-88h-18c-9 37 -27 68 -68 68h-52zM662 243l-152 311h-2v-224c0 -43 9 -59 52 -64v-20h-130v20c44 5 52 21 52 64v250c-11 30 -40 50 -68 50v20h115l157 -315
l164 315h98v-20c-43 -2 -56 -22 -56 -57v-251c0 -51 -3 -50 49 -56v-20h-163v20c52 6 50 5 50 56v235h-2l-155 -314h-9z" />
    <glyph glyph-name="twosuperior" unicode="&#xb2;" horiz-adv-x="300" 
d="M13 264l-7 9l98 93c55 52 108 117 108 184c0 39 -21 89 -68 89c-34 0 -67 -13 -67 -53c0 -16 21 -23 21 -48c0 -17 -14 -26 -31 -29c-31 0 -42 26 -42 48c0 64 52 106 117 106c83 3 134 -41 134 -117c0 -92 -139 -179 -199 -236h108c52 0 61 3 91 43l12 -6l-45 -83
c-33 1 -66 2 -99 2c-43 0 -87 -1 -131 -2z" />
    <glyph glyph-name="uacute" unicode="&#xfa;" horiz-adv-x="537" 
d="M156 384v-262c0 -54 31 -88 85 -88c43 0 90 25 110 48v211c0 34 -6 59 -79 69v11l157 11v-307c0 -51 27 -62 74 -65v-10c-51 -3 -103 -4 -152 -6v52c-47 -35 -98 -64 -157 -64c-64 0 -116 35 -116 110v207c0 40 -21 51 -75 57v13zM193 433l116 130c22 25 37 42 56 42
c26 0 41 -11 41 -32c0 -15 -13 -33 -29 -44l-140 -96h-44z" />
    <glyph glyph-name="ucircumflex" unicode="&#xfb;" horiz-adv-x="537" 
d="M156 384v-262c0 -54 31 -88 85 -88c43 0 90 25 110 48v211c0 34 -6 59 -79 69v11l157 11v-307c0 -51 27 -62 74 -65v-10c-51 -3 -103 -4 -152 -6v52c-47 -35 -98 -64 -157 -64c-64 0 -116 35 -116 110v207c0 40 -21 51 -75 57v13zM111 433l111 172h69l113 -172h-41
l-106 110l-107 -110h-39z" />
    <glyph glyph-name="udieresis" unicode="&#xfc;" horiz-adv-x="537" 
d="M156 384v-262c0 -54 31 -88 85 -88c43 0 90 25 110 48v211c0 34 -6 59 -79 69v11l157 11v-307c0 -51 27 -62 74 -65v-10c-51 -3 -103 -4 -152 -6v52c-47 -35 -98 -64 -157 -64c-64 0 -116 35 -116 110v207c0 40 -21 51 -75 57v13zM164 553c30 0 53 -23 53 -53
s-23 -53 -53 -53s-53 23 -53 53s23 53 53 53zM349 553c30 0 53 -23 53 -53s-23 -53 -53 -53s-53 23 -53 53s23 53 53 53z" />
    <glyph glyph-name="ugrave" unicode="&#xf9;" horiz-adv-x="537" 
d="M156 384v-262c0 -54 31 -88 85 -88c43 0 90 25 110 48v211c0 34 -6 59 -79 69v11l157 11v-307c0 -51 27 -62 74 -65v-10c-51 -3 -103 -4 -152 -6v52c-47 -35 -98 -64 -157 -64c-64 0 -116 35 -116 110v207c0 40 -21 51 -75 57v13zM332 433h-44l-140 96
c-16 11 -29 29 -29 44c0 21 15 32 41 32c19 0 34 -17 56 -42z" />
    <glyph glyph-name="yacute" unicode="&#xfd;" 
d="M-25 360v12c40 -4 71 -4 112 -4c40 0 82 0 122 4v-12c-29 -4 -62 -15 -62 -49c0 -54 80 -187 109 -278c21 40 118 256 118 284c0 32 -31 36 -59 43v12c31 -4 61 -4 93 -4c30 0 60 0 90 4v-12c-73 -10 -146 -188 -169 -236c-168 -352 -226 -374 -311 -374
c-48 0 -97 26 -97 85c0 27 22 52 49 52c31 0 51 -15 51 -47c0 -22 -16 -39 -16 -45c0 -8 24 -9 43 -9c81 0 161 156 161 177c0 11 -96 223 -139 313c-28 60 -32 69 -95 84zM187 433l116 130c22 25 37 42 56 42c26 0 41 -11 41 -32c0 -15 -13 -33 -29 -44l-140 -96h-44z" />
    <glyph glyph-name="ydieresis" unicode="&#xff;" 
d="M-25 360v12c40 -4 71 -4 112 -4c40 0 82 0 122 4v-12c-29 -4 -62 -15 -62 -49c0 -54 80 -187 109 -278c21 40 118 256 118 284c0 32 -31 36 -59 43v12c31 -4 61 -4 93 -4c30 0 60 0 90 4v-12c-73 -10 -146 -188 -169 -236c-168 -352 -226 -374 -311 -374
c-48 0 -97 26 -97 85c0 27 22 52 49 52c31 0 51 -15 51 -47c0 -22 -16 -39 -16 -45c0 -8 24 -9 43 -9c81 0 161 156 161 177c0 11 -96 223 -139 313c-28 60 -32 69 -95 84zM158 553c30 0 53 -23 53 -53s-23 -53 -53 -53s-53 23 -53 53s23 53 53 53zM343 553
c30 0 53 -23 53 -53s-23 -53 -53 -53s-53 23 -53 53s23 53 53 53z" />
    <glyph glyph-name="zcaron" unicode="&#x17e;" horiz-adv-x="444" 
d="M25 -4l-9 18l270 328h-71c-77 0 -129 -22 -164 -93l-14 4l14 119c55 -2 109 -4 164 -4c54 0 109 2 163 4l11 -16l-272 -330h64c93 0 163 8 196 104l15 -5l-22 -129c-60 2 -120 4 -180 4c-55 0 -110 -2 -165 -4zM370 605l-113 -172h-69l-111 172h39l107 -114l106 114h41z
" />
    </font>
</defs>
</svg>
